<svg width="80" height="57" viewBox="0 0 80 57" fill="none" xmlns="http://www.w3.org/2000/svg">
<path d="M16.25 57C16.1316 56.9988 16.014 56.9821 15.9 56.9504C15.6404 56.8754 15.4123 56.7188 15.25 56.5043C15.0877 56.2899 15 56.029 15 55.7609V31.6784H1.25C0.918479 31.6784 0.600537 31.5478 0.366117 31.3154C0.131696 31.0831 0 30.7679 0 30.4392V1.23913C0 0.910493 0.131696 0.595315 0.366117 0.362933C0.600537 0.130551 0.918479 0 1.25 0H32.5C32.8315 0 33.1495 0.130551 33.3839 0.362933C33.6183 0.595315 33.75 0.910493 33.75 1.23913V30.4145C33.7501 30.6492 33.6829 30.8791 33.5562 31.0774L17.3062 56.4238C17.1935 56.6003 17.0375 56.7457 16.8528 56.8465C16.6682 56.9472 16.4608 57 16.25 57ZM2.5 29.1753H16.25C16.5815 29.1753 16.8995 29.3059 17.1339 29.5383C17.3683 29.7706 17.5 30.0858 17.5 30.4145V51.4797L31.25 30.0489V2.47826H2.5V29.1753Z" fill="#00B7DF"/>
<path d="M62.5 57C62.3816 56.9988 62.264 56.9821 62.15 56.9504C61.8904 56.8754 61.6623 56.7188 61.5 56.5043C61.3377 56.2899 61.25 56.029 61.25 55.7609V31.6784H47.5C47.1685 31.6784 46.8505 31.5478 46.6161 31.3154C46.3817 31.0831 46.25 30.7679 46.25 30.4392V1.23913C46.25 0.910493 46.3817 0.595315 46.6161 0.362933C46.8505 0.130551 47.1685 0 47.5 0H78.75C79.0815 0 79.3995 0.130551 79.6339 0.362933C79.8683 0.595315 80 0.910493 80 1.23913V30.4145C80.0001 30.6492 79.9329 30.8791 79.8063 31.0774L63.5563 56.4238C63.4435 56.6003 63.2875 56.7457 63.1028 56.8465C62.9182 56.9472 62.7108 57 62.5 57ZM48.75 29.1753H62.5C62.8315 29.1753 63.1495 29.3059 63.3839 29.5383C63.6183 29.7706 63.75 30.0858 63.75 30.4145V51.4797L77.5 30.0489V2.47826H48.75V29.1753Z" fill="#00B7DF"/>
</svg>
