<svg width="20" height="20" viewBox="0 0 20 20" fill="none" xmlns="http://www.w3.org/2000/svg">
<circle cx="10" cy="10" r="9.5" stroke="#00B7DF"/>
<path d="M9.46122 15.4073C9.42408 15.4073 9.38734 15.3996 9.35332 15.3847C9.3193 15.3698 9.28872 15.348 9.26352 15.3208L3.9331 9.55479C3.89757 9.51635 3.87401 9.46838 3.86531 9.41676C3.85662 9.36514 3.86316 9.31211 3.88414 9.26415C3.90511 9.21619 3.93962 9.17538 3.98343 9.14672C4.02724 9.11807 4.07845 9.10281 4.1308 9.10281H6.69657C6.73509 9.10281 6.77316 9.11108 6.80822 9.12705C6.84328 9.14302 6.8745 9.16633 6.89978 9.19539L8.68123 11.2449C8.87375 10.8333 9.24645 10.1481 9.90047 9.3131C10.8673 8.07868 12.6657 6.26323 15.7426 4.62437C15.8021 4.5927 15.8713 4.58448 15.9365 4.60133C16.0017 4.61819 16.0583 4.65889 16.095 4.7154C16.1317 4.77191 16.1458 4.84012 16.1347 4.90657C16.1235 4.97302 16.0879 5.03287 16.0347 5.07431C16.023 5.08349 14.8367 6.01772 13.4713 7.72892C12.2148 9.30365 10.5444 11.8786 9.72248 15.2028C9.70804 15.2612 9.67446 15.3131 9.62709 15.3501C9.57972 15.3872 9.5213 15.4074 9.46114 15.4074L9.46122 15.4073Z" fill="#00B7DF"/>
</svg>
