<svg width="60" height="60" viewBox="0 0 60 60" fill="none" xmlns="http://www.w3.org/2000/svg">
<path fill-rule="evenodd" clip-rule="evenodd" d="M6.75205 7.5235H53.2499C53.5628 7.5235 53.8456 7.39493 54.0513 7.18922C54.257 6.9835 54.3856 6.6985 54.3856 6.38779C54.3856 6.07707 54.257 5.79207 54.0513 5.58636C53.8456 5.38064 53.5606 5.25207 53.2499 5.25207H6.75205C6.43919 5.25207 6.15633 5.38064 5.95062 5.58636C5.7449 5.79207 5.61633 6.07707 5.61633 6.38779C5.61633 6.70064 5.7449 6.9835 5.95062 7.18922C6.15419 7.39493 6.43919 7.5235 6.75205 7.5235ZM30.857 46.5599C31.2813 46.6971 31.6628 46.9328 31.9713 47.2414C32.4749 47.7449 32.7878 48.4435 32.7878 49.2128C32.7878 49.9821 32.4749 50.6806 31.9713 51.1842C31.4678 51.6878 30.7692 52.0006 29.9999 52.0006C29.2306 52.0006 28.532 51.6878 28.0285 51.1842C27.5249 50.6806 27.212 49.9821 27.212 49.2128C27.212 48.4435 27.5249 47.7449 28.0285 47.2414C28.337 46.9328 28.7185 46.6971 29.1428 46.5599V44.1106H22.9992L15.7713 56.0485C15.6106 56.3142 15.3299 56.4599 15.0406 56.4599L11.0528 56.4642C10.5792 56.4642 10.1956 56.0806 10.1956 55.6071C10.1956 55.4721 10.2278 55.3435 10.2835 55.2278L14.7706 44.1106H6.75205C6.27847 44.1106 5.8949 43.7271 5.8949 43.2535V9.10707C5.45347 8.96779 5.05705 8.72136 4.73776 8.40207C4.22133 7.88564 3.8999 7.17207 3.8999 6.38779C3.8999 5.6035 4.22133 4.88993 4.73776 4.3735C5.25419 3.85707 5.96776 3.53564 6.75205 3.53564H53.2499C54.0342 3.53564 54.7478 3.85707 55.2642 4.3735C55.7806 4.88993 56.102 5.6035 56.102 6.38779C56.102 7.17207 55.7806 7.88564 55.2642 8.40207C54.9449 8.72136 54.5485 8.96779 54.107 9.10707V43.2556C54.107 43.7292 53.7235 44.1128 53.2499 44.1128H45.2292L49.7142 55.2278C49.7699 55.3414 49.802 55.4699 49.802 55.6071C49.802 56.0806 49.4185 56.4642 48.9449 56.4642L44.957 56.4599C44.6678 56.4599 44.387 56.3142 44.2263 56.0485L36.9985 44.1106H30.857V46.5599ZM30.7585 48.4542C30.5635 48.2592 30.2956 48.1392 29.9999 48.1392C29.7042 48.1392 29.4342 48.2592 29.2413 48.4542C29.0463 48.6492 28.9263 48.9171 28.9263 49.2128C28.9263 49.5085 29.0463 49.7785 29.2413 49.9714C29.4363 50.1664 29.7042 50.2864 29.9999 50.2864C30.2956 50.2864 30.5656 50.1664 30.7585 49.9714C30.9535 49.7764 31.0735 49.5085 31.0735 49.2128C31.0735 48.9171 30.9535 48.6492 30.7585 48.4542ZM15.4006 13.5428H19.7163C20.1899 13.5428 20.5735 13.1592 20.5735 12.6856C20.5735 12.2121 20.1899 11.8285 19.7163 11.8285H15.4006C14.927 11.8285 14.5435 12.2121 14.5435 12.6856C14.5435 13.1592 14.927 13.5428 15.4006 13.5428ZM15.4006 19.9714H25.4613C25.9349 19.9714 26.3185 19.5878 26.3185 19.1142C26.3185 18.6406 25.9349 18.2571 25.4613 18.2571H15.4006C14.927 18.2571 14.5435 18.6406 14.5435 19.1142C14.5435 19.5878 14.927 19.9714 15.4006 19.9714ZM15.4006 16.7571H25.4613C25.9349 16.7571 26.3185 16.3735 26.3185 15.8999C26.3185 15.4264 25.9349 15.0428 25.4613 15.0428H15.4006C14.927 15.0428 14.5435 15.4264 14.5435 15.8999C14.5435 16.3735 14.927 16.7571 15.4006 16.7571ZM41.5156 14.6164L42.4178 14.9999L15.0663 26.6571C14.6313 26.8414 14.4299 27.3449 14.6142 27.7778C14.7985 28.2128 15.302 28.4142 15.7349 28.2299L42.9792 16.6156L42.6428 17.4128C42.4585 17.8478 42.6599 18.3492 43.0949 18.5335C43.5299 18.7178 44.0313 18.5164 44.2156 18.0814L45.3856 15.3321C45.5699 14.8971 45.3685 14.3956 44.9335 14.2114L42.1842 13.0414C41.7492 12.8571 41.2478 13.0585 41.0635 13.4935C40.877 13.9285 41.0806 14.4299 41.5156 14.6164ZM38.1556 36.9492H43.7399V23.6914H38.1556V36.9492ZM44.5992 38.6635C45.0728 38.6635 45.4563 38.2799 45.4563 37.8064V22.8342C45.4563 22.3606 45.0728 21.9771 44.5992 21.9771H37.3006C36.827 21.9771 36.4435 22.3606 36.4435 22.8342V37.8064C36.4435 38.2799 36.827 38.6635 37.3006 38.6635H44.5992ZM27.2078 36.9492H32.792V28.3606H27.2078V36.9492ZM33.6492 38.6635C34.1228 38.6635 34.5063 38.2799 34.5063 37.8064V27.5035C34.5063 27.0299 34.1228 26.6464 33.6492 26.6464H26.3506C25.877 26.6464 25.4935 27.0299 25.4935 27.5035V37.8064C25.4935 38.2799 25.877 38.6635 26.3506 38.6635H33.6492ZM16.2578 36.9492H21.842V33.0278H16.2578V36.9492ZM22.7013 38.6635C23.1749 38.6635 23.5585 38.2799 23.5585 37.8064V32.1706C23.5585 31.6971 23.1749 31.3135 22.7013 31.3135H15.4006C14.927 31.3135 14.5435 31.6971 14.5435 32.1706V37.8064C14.5435 38.2799 14.927 38.6635 15.4006 38.6635H22.7013ZM43.3842 44.1106H38.9956L45.437 54.7499H47.6785L43.3842 44.1106ZM21.0042 44.1106H16.6156L12.3235 54.7499H14.5649L21.0042 44.1106ZM52.3906 9.23779H7.60919V42.3964H52.3928V9.23779H52.3906Z" fill="white"/>
</svg>
