<svg width="60" height="60" viewBox="0 0 60 60" fill="none" xmlns="http://www.w3.org/2000/svg">
<path d="M56.9197 35.4012H50.0361C49.4931 35.4012 49.0528 35.8415 49.0528 36.3846C49.0528 36.9276 49.4931 37.3679 50.0361 37.3679H54.5455L37.2522 54.6612L32.2932 49.7021C31.9195 49.3286 31.3174 49.3169 30.9296 49.676L24.9862 55.1791L21.4863 51.6792C21.1023 51.2953 20.4797 51.2953 20.0956 51.6792C19.7116 52.0633 19.7116 52.6859 20.0956 53.07L24.2647 57.239C24.4563 57.4306 24.708 57.5269 24.9602 57.5269C25.1996 57.5269 25.4394 57.44 25.6282 57.2652L31.5716 51.762L36.5568 56.7473C36.941 57.1312 37.5635 57.1312 37.9476 56.7473L55.9363 38.7587V43.268C55.9363 43.8111 56.3765 44.2514 56.9196 44.2514C57.4626 44.2514 57.9029 43.8111 57.9029 43.268V36.3844C57.903 35.8415 57.4627 35.4012 56.9197 35.4012Z" fill="#00B7DF"/>
<path d="M22.0091 31.9595H29.3845H36.7598C37.3028 31.9595 37.7431 31.5192 37.7431 30.9762V19.6675C37.7431 18.583 36.8608 17.7007 35.7763 17.7007H30.3713C30.3804 17.7627 30.3797 17.8265 30.3677 17.8902V15.7341C30.3677 14.6496 29.4855 13.7673 28.401 13.7673H22.9925C21.908 13.7673 21.0257 14.6496 21.0257 15.7341V23.1094H15.6171C14.5327 23.1094 13.6504 23.9917 13.6504 25.0762V30.9763C13.6504 31.5194 14.0907 31.9596 14.6337 31.9596L22.0091 31.9595ZM30.3679 19.6675H35.7764V29.9929H30.3679V19.6675ZM22.9926 15.734H28.4011V29.9928H22.9926V15.734ZM15.6173 25.076H21.0258V29.9929H15.6173V25.076Z" fill="#00B7DF"/>
<path d="M25.9434 41.7933C35.9748 41.7933 44.1358 33.6322 44.1358 23.601C44.1358 13.5697 35.9748 5.40857 25.9434 5.40857C15.9121 5.40857 7.75098 13.5696 7.75098 23.601C7.75109 33.6321 15.9121 41.7933 25.9434 41.7933ZM25.9434 7.37533C34.8903 7.37533 42.1691 14.6541 42.1691 23.601C42.1691 32.5478 34.8903 39.8265 25.9434 39.8265C16.9965 39.8265 9.71773 32.5478 9.71773 23.601C9.71785 14.6541 16.9966 7.37533 25.9434 7.37533Z" fill="#00B7DF"/>
<path d="M5.53813 59.079C6.61953 59.7035 7.80114 60.0001 8.96832 60C11.349 59.9998 13.6678 58.7653 14.9413 56.5595L20.6853 46.6106C22.3767 46.9969 24.1364 47.2017 25.9431 47.2017C38.9567 47.2017 49.544 36.6144 49.544 23.6009C49.544 10.5873 38.9567 0 25.9431 0C12.9295 0 2.34219 10.5873 2.34219 23.6009C2.34219 29.8425 4.77875 35.525 8.7493 39.7499L3.01848 49.6759C1.12075 52.9631 2.25102 57.1813 5.53813 59.079ZM25.9431 1.96676C37.8723 1.96676 47.5773 11.6718 47.5773 23.601C47.5773 35.5301 37.8723 45.2351 25.9431 45.2351C14.0139 45.2351 4.30883 35.5301 4.30883 23.601C4.30895 11.6718 14.0139 1.96676 25.9431 1.96676ZM4.7218 50.6593L10.2013 41.1687C12.6404 43.3566 15.5359 45.0446 18.7256 46.0716L13.238 55.5762C11.8825 57.924 8.86953 58.7316 6.52145 57.3759C4.1736 56.0203 3.36618 53.0073 4.7218 50.6593Z" fill="#00B7DF"/>
</svg>
