<svg width="60" height="60" viewBox="0 0 60 60" fill="none" xmlns="http://www.w3.org/2000/svg">
<g clip-path="url(#clip0_2650_7876)">
<path d="M26.25 48.75H4.6875C3.44475 48.7485 2.25334 48.2542 1.37458 47.3754C0.495827 46.4967 0.00148862 45.3052 0 44.0625L0 4.6875C0.00148862 3.44475 0.495827 2.25334 1.37458 1.37458C2.25334 0.495827 3.44475 0.00148862 4.6875 0L6.5625 0V1.875H4.6875C3.94158 1.875 3.22621 2.17132 2.69876 2.69876C2.17132 3.22621 1.875 3.94158 1.875 4.6875V44.0625C1.875 44.8084 2.17132 45.5238 2.69876 46.0512C3.22621 46.5787 3.94158 46.875 4.6875 46.875H26.25V48.75Z" fill="#00B7DF"/>
<path d="M8.4375 0H10.3134V1.875H8.4375V0Z" fill="#00B7DF"/>
<path d="M55.3125 48.75V46.875C56.0584 46.875 56.7738 46.5787 57.3012 46.0512C57.8287 45.5238 58.125 44.8084 58.125 44.0625V4.6875C58.125 3.94158 57.8287 3.22621 57.3012 2.69876C56.7738 2.17132 56.0584 1.875 55.3125 1.875H12.1875V0H55.3125C56.5552 0.00148862 57.7467 0.495827 58.6254 1.37458C59.5042 2.25334 59.9985 3.44475 60 4.6875V44.0625C59.9985 45.3052 59.5042 46.4967 58.6254 47.3754C57.7467 48.2542 56.5552 48.7485 55.3125 48.75Z" fill="#00B7DF"/>
<path d="M17.8408 51.3545L18.7801 47.6051L20.5988 48.0608L19.6596 51.8101L17.8408 51.3545Z" fill="#00B7DF"/>
<path d="M26.25 56.25H16.875C16.6264 56.25 16.3879 56.1512 16.2121 55.9754C16.0363 55.7996 15.9375 55.5611 15.9375 55.3125V53.4375C15.9375 52.6916 16.2338 51.9762 16.7613 51.4488C17.2887 50.9213 18.0041 50.625 18.75 50.625H26.25V52.5H18.75C18.5014 52.5 18.2629 52.5988 18.0871 52.7746C17.9113 52.9504 17.8125 53.1889 17.8125 53.4375V54.375H26.25V56.25Z" fill="#00B7DF"/>
<path d="M0.9375 39.375H26.25V41.25H0.9375V39.375Z" fill="#00B7DF"/>
<path d="M3.75 43.125H5.625V45H3.75V43.125Z" fill="#00B7DF"/>
<path d="M7.5 43.125H13.125V45H7.5V43.125Z" fill="#00B7DF"/>
<path d="M51.5625 60H32.8125C31.5698 59.9985 30.3783 59.5042 29.4996 58.6254C28.6208 57.7467 28.1265 56.5552 28.125 55.3125V17.8125C28.1265 16.5698 28.6208 15.3783 29.4996 14.4996C30.3783 13.6208 31.5698 13.1265 32.8125 13.125H51.5625C52.8052 13.1265 53.9967 13.6208 54.8754 14.4996C55.7542 15.3783 56.2485 16.5698 56.25 17.8125V55.3125C56.2485 56.5552 55.7542 57.7467 54.8754 58.6254C53.9967 59.5042 52.8052 59.9985 51.5625 60ZM32.8125 15C32.0666 15 31.3512 15.2963 30.8238 15.8238C30.2963 16.3512 30 17.0666 30 17.8125V55.3125C30 56.0584 30.2963 56.7738 30.8238 57.3012C31.3512 57.8287 32.0666 58.125 32.8125 58.125H51.5625C52.3084 58.125 53.0238 57.8287 53.5512 57.3012C54.0787 56.7738 54.375 56.0584 54.375 55.3125V17.8125C54.375 17.0666 54.0787 16.3512 53.5512 15.8238C53.0238 15.2963 52.3084 15 51.5625 15H32.8125Z" fill="#00B7DF"/>
<path d="M46.875 22.5H37.5C35.7431 22.5 35.0072 20.97 34.7747 19.6875H29.0625V17.8125H35.625C35.8736 17.8125 36.1121 17.9113 36.2879 18.0871C36.4637 18.2629 36.5625 18.5014 36.5625 18.75C36.5625 18.7659 36.615 20.625 37.5 20.625H46.875C47.76 20.625 47.8125 18.7659 47.8125 18.75C47.8125 18.5014 47.9113 18.2629 48.0871 18.0871C48.2629 17.9113 48.5014 17.8125 48.75 17.8125H55.3125V19.6875H49.6003C49.3678 20.97 48.6319 22.5 46.875 22.5Z" fill="#00B7DF"/>
<path d="M38.4375 16.875H45.9375V18.75H38.4375V16.875Z" fill="#00B7DF"/>
<path d="M38.4375 55.3125H45.9375V57.1875H38.4375V55.3125Z" fill="#00B7DF"/>
<path d="M29.0625 52.5H55.3125V54.375H29.0625V52.5Z" fill="#00B7DF"/>
<path d="M16.875 26.25H13.125C12.8764 26.25 12.6379 26.1512 12.4621 25.9754C12.2863 25.7996 12.1875 25.5611 12.1875 25.3125V23.9381C11.664 23.7732 11.1561 23.5624 10.6697 23.3081L9.69656 24.2812C9.52076 24.457 9.28234 24.5557 9.03375 24.5557C8.78516 24.5557 8.54674 24.457 8.37094 24.2812L5.71875 21.6291C5.543 21.4533 5.44426 21.2148 5.44426 20.9663C5.44426 20.7177 5.543 20.4792 5.71875 20.3034L6.69094 19.3303C6.43698 18.8439 6.22647 18.336 6.06188 17.8125H4.6875C4.43886 17.8125 4.2004 17.7137 4.02459 17.5379C3.84877 17.3621 3.75 17.1236 3.75 16.875V13.125C3.75 12.8764 3.84877 12.6379 4.02459 12.4621C4.2004 12.2863 4.43886 12.1875 4.6875 12.1875H6.06188C6.22677 11.664 6.43759 11.1561 6.69188 10.6697L5.71875 9.69656C5.543 9.52076 5.44426 9.28234 5.44426 9.03375C5.44426 8.78516 5.543 8.54674 5.71875 8.37094L8.37094 5.71875C8.54674 5.543 8.78516 5.44426 9.03375 5.44426C9.28234 5.44426 9.52076 5.543 9.69656 5.71875L10.6697 6.69094C11.1561 6.43698 11.664 6.22647 12.1875 6.06188V4.6875C12.1875 4.43886 12.2863 4.2004 12.4621 4.02459C12.6379 3.84877 12.8764 3.75 13.125 3.75H16.875C17.1236 3.75 17.3621 3.84877 17.5379 4.02459C17.7137 4.2004 17.8125 4.43886 17.8125 4.6875V6.06188C18.336 6.22677 18.8439 6.43759 19.3303 6.69188L20.3034 5.71875C20.4792 5.543 20.7177 5.44426 20.9663 5.44426C21.2148 5.44426 21.4533 5.543 21.6291 5.71875L24.2812 8.37094C24.457 8.54674 24.5557 8.78516 24.5557 9.03375C24.5557 9.28234 24.457 9.52076 24.2812 9.69656L23.3091 10.6697C23.563 11.1561 23.7735 11.664 23.9381 12.1875H25.3125C25.5611 12.1875 25.7996 12.2863 25.9754 12.4621C26.1512 12.6379 26.25 12.8764 26.25 13.125V16.875C26.25 17.1236 26.1512 17.3621 25.9754 17.5379C25.7996 17.7137 25.5611 17.8125 25.3125 17.8125H23.9381C23.7732 18.336 23.5624 18.8439 23.3081 19.3303L24.2812 20.3034C24.457 20.4792 24.5557 20.7177 24.5557 20.9663C24.5557 21.2148 24.457 21.4533 24.2812 21.6291L21.6291 24.2812C21.4533 24.457 21.2148 24.5557 20.9663 24.5557C20.7177 24.5557 20.4792 24.457 20.3034 24.2812L19.3303 23.3091C18.8439 23.563 18.336 23.7735 17.8125 23.9381V25.3125C17.8125 25.5611 17.7137 25.7996 17.5379 25.9754C17.3621 26.1512 17.1236 26.25 16.875 26.25ZM14.0625 24.375H15.9375V23.2219C15.9373 23.0093 16.0094 22.8029 16.1419 22.6366C16.2744 22.4704 16.4596 22.3541 16.6669 22.3069C17.4888 22.1199 18.2728 21.7943 18.9853 21.3441C19.1652 21.2305 19.3784 21.1816 19.5899 21.2053C19.8013 21.229 19.9984 21.3239 20.1488 21.4744L20.9663 22.2919L22.2919 20.9663L21.4744 20.1488C21.3239 19.9984 21.229 19.8013 21.2053 19.5899C21.1816 19.3784 21.2305 19.1652 21.3441 18.9853C21.7943 18.2728 22.1199 17.4888 22.3069 16.6669C22.3541 16.4596 22.4704 16.2744 22.6366 16.1419C22.8029 16.0094 23.0093 15.9373 23.2219 15.9375H24.375V14.0625H23.2219C23.0093 14.0627 22.8029 13.9906 22.6366 13.8581C22.4704 13.7256 22.3541 13.5404 22.3069 13.3331C22.1199 12.5112 21.7943 11.7272 21.3441 11.0147C21.2305 10.8348 21.1816 10.6216 21.2053 10.4101C21.229 10.1987 21.3239 10.0016 21.4744 9.85125L22.2919 9.03375L20.9663 7.70813L20.1488 8.52562C19.9984 8.67613 19.8013 8.77102 19.5899 8.79471C19.3784 8.81839 19.1652 8.76945 18.9853 8.65594C18.2728 8.20569 17.4888 7.88009 16.6669 7.69313C16.4596 7.64592 16.2744 7.52965 16.1419 7.36339C16.0094 7.19712 15.9373 6.99075 15.9375 6.77813V5.625H14.0625V6.77813C14.0627 6.99075 13.9906 7.19712 13.8581 7.36339C13.7256 7.52965 13.5404 7.64592 13.3331 7.69313C12.5112 7.88009 11.7272 8.20569 11.0147 8.65594C10.8348 8.76945 10.6216 8.81839 10.4101 8.79471C10.1987 8.77102 10.0016 8.67613 9.85125 8.52562L9.03375 7.70813L7.70813 9.03375L8.52562 9.85125C8.67613 10.0016 8.77102 10.1987 8.79471 10.4101C8.81839 10.6216 8.76945 10.8348 8.65594 11.0147C8.20569 11.7272 7.88009 12.5112 7.69313 13.3331C7.64592 13.5404 7.52965 13.7256 7.36339 13.8581C7.19712 13.9906 6.99075 14.0627 6.77813 14.0625H5.625V15.9375H6.77813C6.99075 15.9373 7.19712 16.0094 7.36339 16.1419C7.52965 16.2744 7.64592 16.4596 7.69313 16.6669C7.88009 17.4888 8.20569 18.2728 8.65594 18.9853C8.76945 19.1652 8.81839 19.3784 8.79471 19.5899C8.77102 19.8013 8.67613 19.9984 8.52562 20.1488L7.70813 20.9663L9.03375 22.2919L9.85125 21.4744C10.0016 21.3239 10.1987 21.229 10.4101 21.2053C10.6216 21.1816 10.8348 21.2305 11.0147 21.3441C11.7272 21.7943 12.5112 22.1199 13.3331 22.3069C13.5404 22.3541 13.7256 22.4704 13.8581 22.6366C13.9906 22.8029 14.0627 23.0093 14.0625 23.2219V24.375Z" fill="#00B7DF"/>
<path d="M15 19.6875C14.0729 19.6875 13.1666 19.4126 12.3958 18.8975C11.6249 18.3824 11.0241 17.6504 10.6693 16.7938C10.3145 15.9373 10.2217 14.9948 10.4026 14.0855C10.5834 13.1762 11.0299 12.341 11.6854 11.6854C12.341 11.0299 13.1762 10.5834 14.0855 10.4026C14.9948 10.2217 15.9373 10.3145 16.7938 10.6693C17.6504 11.0241 18.3824 11.6249 18.8975 12.3958C19.4126 13.1666 19.6875 14.0729 19.6875 15C19.686 16.2427 19.1917 17.4342 18.3129 18.3129C17.4342 19.1917 16.2427 19.686 15 19.6875ZM15 12.1875C14.4437 12.1875 13.9 12.3525 13.4375 12.6615C12.9749 12.9705 12.6145 13.4098 12.4016 13.9237C12.1887 14.4376 12.133 15.0031 12.2415 15.5487C12.3501 16.0943 12.6179 16.5954 13.0113 16.9887C13.4046 17.3821 13.9057 17.6499 14.4513 17.7585C14.9969 17.867 15.5624 17.8113 16.0763 17.5984C16.5902 17.3855 17.0295 17.0251 17.3385 16.5625C17.6476 16.1 17.8125 15.5563 17.8125 15C17.8125 14.2541 17.5162 13.5387 16.9887 13.0113C16.4613 12.4838 15.7459 12.1875 15 12.1875Z" fill="#00B7DF"/>
<path d="M15.9375 38.4375H14.0625V34.6875C14.0625 34.4389 14.1613 34.2004 14.3371 34.0246C14.5129 33.8488 14.7514 33.75 15 33.75H16.3744C16.5393 33.2265 16.7501 32.7186 17.0044 32.2322L16.0313 31.2591C15.8555 31.0833 15.7568 30.8448 15.7568 30.5963C15.7568 30.3477 15.8555 30.1092 16.0313 29.9334L18.6834 27.2813C18.8592 27.1055 19.0977 27.0068 19.3462 27.0068C19.5948 27.0068 19.8333 27.1055 20.0091 27.2813L20.9822 28.2534C21.4686 27.9995 21.9765 27.789 22.5 27.6244V26.25C22.5 26.0014 22.5988 25.7629 22.7746 25.5871C22.9504 25.4113 23.1889 25.3125 23.4375 25.3125H27.1875V27.1875H24.375V28.3406C24.3752 28.5532 24.3031 28.7596 24.1706 28.9259C24.0381 29.0921 23.8529 29.2084 23.6456 29.2556C22.8237 29.4426 22.0397 29.7682 21.3272 30.2184C21.1473 30.332 20.9341 30.3809 20.7226 30.3572C20.5112 30.3335 20.3141 30.2386 20.1637 30.0881L19.3462 29.2706L18.0206 30.5963L18.8381 31.4137C18.9886 31.5641 19.0835 31.7612 19.1072 31.9726C19.1309 32.1841 19.082 32.3973 18.9684 32.5772C18.5182 33.2897 18.1926 34.0737 18.0056 34.8956C17.9584 35.1029 17.8421 35.2881 17.6759 35.4206C17.5096 35.5531 17.3032 35.6252 17.0906 35.625H15.9375V38.4375Z" fill="#00B7DF"/>
<path d="M22.5 36.5625H20.625C20.6265 35.3198 21.1208 34.1283 21.9996 33.2496C22.8783 32.3708 24.0698 31.8765 25.3125 31.875V33.75C24.5666 33.75 23.8512 34.0463 23.3238 34.5738C22.7963 35.1012 22.5 35.8166 22.5 36.5625Z" fill="#00B7DF"/>
<path d="M42.1875 46.875C40.1479 46.875 38.1541 46.2702 36.4582 45.137C34.7623 44.0039 33.4405 42.3933 32.66 40.5089C31.8795 38.6246 31.6752 36.5511 32.0732 34.5506C32.4711 32.5502 33.4532 30.7127 34.8955 29.2705C36.3377 27.8282 38.1752 26.8461 40.1756 26.4482C42.1761 26.0502 44.2496 26.2545 46.1339 27.035C48.0183 27.8155 49.6289 29.1373 50.762 30.8332C51.8952 32.5291 52.5 34.5229 52.5 36.5625C52.4968 39.2966 51.4093 41.9177 49.476 43.851C47.5427 45.7843 44.9216 46.8718 42.1875 46.875ZM42.1875 28.125C40.5187 28.125 38.8874 28.6199 37.4999 29.547C36.1123 30.4741 35.0309 31.7919 34.3923 33.3336C33.7537 34.8754 33.5866 36.5719 33.9121 38.2086C34.2377 39.8453 35.0413 41.3487 36.2213 42.5287C37.4013 43.7087 38.9047 44.5123 40.5414 44.8379C42.1781 45.1634 43.8746 44.9964 45.4164 44.3577C46.9581 43.7191 48.2759 42.6377 49.203 41.2501C50.1302 39.8626 50.625 38.2313 50.625 36.5625C50.6223 34.3256 49.7325 32.1811 48.1507 30.5993C46.569 29.0176 44.4244 28.1277 42.1875 28.125Z" fill="#00B7DF"/>
<path d="M40.3123 43.125C40.0637 43.1249 39.8253 43.0261 39.6495 42.8503L34.962 38.1628C34.7862 37.987 34.6875 37.7486 34.6875 37.5C34.6875 37.2514 34.7862 37.013 34.962 36.8372L37.7745 34.0247C37.9503 33.8489 38.1887 33.7502 38.4373 33.7502C38.6859 33.7502 38.9243 33.8489 39.1001 34.0247L40.3123 35.2369L45.2745 30.2747C45.4503 30.0989 45.6887 30.0002 45.9373 30.0002C46.1859 30.0002 46.4243 30.0989 46.6001 30.2747L49.4126 33.0872C49.5884 33.263 49.6871 33.5014 49.6871 33.75C49.6871 33.9986 49.5884 34.237 49.4126 34.4128L40.9751 42.8503C40.7993 43.0261 40.5609 43.1249 40.3123 43.125ZM36.9504 37.5L40.3123 40.8619L47.4242 33.75L45.9373 32.2631L40.9751 37.2253C40.7993 37.4011 40.5609 37.4998 40.3123 37.4998C40.0637 37.4998 39.8253 37.4011 39.6495 37.2253L38.4373 36.0131L36.9504 37.5Z" fill="#00B7DF"/>
<path d="M53.4375 3.75H55.3125V5.625H53.4375V3.75Z" fill="#00B7DF"/>
<path d="M39.375 3.75H51.5625V5.625H39.375V3.75Z" fill="#00B7DF"/>
</g>
<defs>
<clipPath id="clip0_2650_7876">
<rect width="60" height="60" fill="white"/>
</clipPath>
</defs>
</svg>
