<svg width="750" height="500" viewBox="0 0 750 500" fill="none" xmlns="http://www.w3.org/2000/svg">
<path d="M470.824 414.192H485.831C493.357 414.192 499.458 420.296 499.458 427.826C499.458 435.357 493.357 441.461 485.831 441.461H229.01C221.484 441.461 215.383 435.357 215.383 427.826C215.383 420.296 221.484 414.192 229.01 414.192H242.818H470.824Z" fill="#0A0A0E"/>
<path d="M460.135 359.688H254.711V414.225H460.135V359.688Z" fill="#0A0A0E"/>
<path d="M460.135 414.827H254.712C254.379 414.827 254.109 414.558 254.109 414.225V359.687C254.109 359.354 254.379 359.085 254.712 359.085C255.045 359.085 255.314 359.354 255.314 359.687V413.623H459.533V359.687C459.533 359.354 459.802 359.085 460.135 359.085C460.468 359.085 460.738 359.354 460.738 359.687V414.225C460.738 414.558 460.468 414.827 460.135 414.827Z" fill="#363739"/>
<path d="M485.832 442.063H229.01C221.164 442.063 214.781 435.677 214.781 427.827C214.781 419.977 221.164 413.59 229.01 413.59H242.819C243.152 413.59 243.422 413.859 243.422 414.192C243.422 414.525 243.152 414.794 242.819 414.794H229.01C221.829 414.794 215.986 420.64 215.986 427.826C215.986 435.013 221.829 440.859 229.01 440.859H485.832C493.014 440.859 498.857 435.013 498.857 427.827C498.857 420.64 493.014 414.794 485.832 414.794H470.824C470.491 414.794 470.222 414.525 470.222 414.192C470.222 413.859 470.491 413.59 470.824 413.59H485.832C493.678 413.59 500.061 419.977 500.061 427.826C500.061 435.676 493.678 442.063 485.832 442.063Z" fill="#363739"/>
<path d="M452.474 373.1H262.356C262.023 373.1 261.754 372.831 261.754 372.498C261.754 372.165 262.023 371.896 262.356 371.896H452.474C452.807 371.896 453.077 372.165 453.077 372.498C453.077 372.831 452.807 373.1 452.474 373.1Z" fill="#363739"/>
<path d="M603.369 330.667C603.369 346.69 590.361 359.674 574.327 359.657L97.9744 359.154C88.2999 359.154 80.457 351.307 80.457 341.627V18.1287C80.457 8.44865 88.2999 0.601654 97.9744 0.601654H585.851C595.526 0.601654 603.368 8.44893 603.368 18.1287V204.263L603.369 330.667Z" fill="#0A0A0E"/>
<path d="M603.369 28.3579H80.4578C80.1251 28.3579 79.8555 28.0888 79.8555 27.756C79.8555 27.4235 80.1248 27.1541 80.4578 27.1541H603.369C603.702 27.1541 603.972 27.4232 603.972 27.756C603.972 28.0888 603.702 28.3579 603.369 28.3579Z" fill="#363739"/>
<path d="M96.4851 20.7703C93.4889 20.7703 91.0508 18.3298 91.0508 15.3306C91.0508 12.3315 93.4889 9.89102 96.4851 9.89102C99.4812 9.89102 101.919 12.3315 101.919 15.3306C101.919 18.3298 99.4812 20.7703 96.4851 20.7703ZM96.4851 11.0946C94.153 11.0946 92.2555 12.9948 92.2555 15.3304C92.2555 17.6662 94.153 19.5662 96.4851 19.5662C98.8171 19.5662 100.715 17.6659 100.715 15.3304C100.715 12.9948 98.8174 11.0946 96.4851 11.0946Z" fill="#363739"/>
<path d="M110.587 20.7703C107.59 20.7703 105.152 18.3298 105.152 15.3306C105.152 12.3315 107.59 9.89102 110.587 9.89102C113.583 9.89102 116.021 12.3315 116.021 15.3306C116.021 18.3298 113.583 20.7703 110.587 20.7703ZM110.587 11.0946C108.255 11.0946 106.357 12.9948 106.357 15.3304C106.357 17.6662 108.255 19.5662 110.587 19.5662C112.919 19.5662 114.816 17.6659 114.816 15.3304C114.816 12.9948 112.919 11.0946 110.587 11.0946Z" fill="#363739"/>
<path d="M124.692 20.7703C121.696 20.7703 119.258 18.3298 119.258 15.3306C119.258 12.3315 121.696 9.89102 124.692 9.89102C127.688 9.89102 130.126 12.3315 130.126 15.3306C130.126 18.3298 127.688 20.7703 124.692 20.7703ZM124.692 11.0946C122.36 11.0946 120.463 12.9948 120.463 15.3304C120.463 17.6662 122.36 19.5662 124.692 19.5662C127.024 19.5662 128.922 17.6659 128.922 15.3304C128.922 12.9948 127.024 11.0946 124.692 11.0946Z" fill="#363739"/>
<path d="M561.963 360.289H561.962L97.9747 359.756C87.9841 359.756 79.8555 351.623 79.8555 341.627V18.129C79.8555 8.13252 87.9841 0 97.9755 0H585.852C595.843 0 603.972 8.13279 603.972 18.129V183.594C603.972 183.926 603.702 184.196 603.37 184.196C603.037 184.196 602.767 183.927 602.767 183.594V18.1287C602.767 8.79591 595.179 1.20328 585.852 1.20328H97.9752C88.6479 1.20328 81.0599 8.79563 81.0599 18.1287V341.626C81.0599 350.959 88.6479 358.552 97.9752 358.552L561.964 359.085C562.297 359.086 562.566 359.356 562.565 359.688C562.565 360.02 562.295 360.289 561.963 360.289Z" fill="#363739"/>
<path d="M471.445 292.036H221.138C220.804 292.036 220.535 291.767 220.535 291.434C220.535 291.101 220.804 290.832 221.138 290.832H471.445C471.778 290.832 472.048 291.101 472.048 291.434C472.048 291.767 471.778 292.036 471.445 292.036Z" fill="#363739"/>
<path d="M687.549 177.819L689.161 179.741C707.412 201.501 717.759 228.802 718.515 257.198C720.275 323.341 723.308 445.323 722.93 487.598C722.873 493.991 717.675 499.137 711.285 499.137H645.008C640.521 499.137 638.013 493.957 640.795 490.435L650.519 478.123L663.188 327.923L612.102 491.355C610.453 496.019 606.045 499.138 601.1 499.138H530.419C525.785 499.138 523.327 493.659 526.407 490.195L539.478 475.496L633.922 222.373L687.549 177.819Z" fill="#0A0A0E"/>
<path d="M711.286 499.739H645.009C642.702 499.739 640.644 498.45 639.637 496.374C638.628 494.294 638.891 491.876 640.323 490.063L649.935 477.892L662.128 333.336L612.678 491.534C610.941 496.45 606.291 499.739 601.101 499.739H530.42C528.038 499.739 525.951 498.389 524.974 496.216C523.996 494.039 524.373 491.578 525.959 489.795L538.954 475.18L633.359 222.162C633.396 222.064 633.458 221.977 633.538 221.91L687.165 177.356C687.422 177.144 687.799 177.18 688.012 177.432L689.624 179.354C707.887 201.13 718.362 228.77 719.118 257.183C720.929 325.186 723.91 445.548 723.534 487.603C723.474 494.295 717.98 499.739 711.286 499.739ZM663.189 327.321C663.227 327.321 663.266 327.325 663.305 327.333C663.606 327.391 663.815 327.668 663.789 327.974L651.121 478.173C651.111 478.291 651.066 478.403 650.993 478.495L641.269 490.808C640.108 492.278 639.903 494.163 640.721 495.849C641.537 497.531 643.14 498.536 645.009 498.536H711.286C717.321 498.536 722.275 493.626 722.33 487.592C722.705 445.556 719.724 325.21 717.913 257.214C717.165 229.072 706.79 201.696 688.701 180.128L687.474 178.665L634.432 222.733L540.044 475.706C540.018 475.776 539.979 475.84 539.93 475.896L526.859 490.595C525.593 492.019 525.292 493.984 526.073 495.723C526.854 497.458 528.518 498.536 530.42 498.536H601.101C605.782 498.536 609.976 495.569 611.536 491.154L662.615 327.744C662.694 327.489 662.93 327.321 663.189 327.321Z" fill="#363739"/>
<path d="M613.17 481.049C613.162 481.049 613.153 481.049 613.144 481.048C590.327 480.086 567.246 478.354 544.541 475.902C544.211 475.866 543.972 475.569 544.007 475.239C544.043 474.908 544.348 474.667 544.671 474.705C567.35 477.155 590.405 478.884 613.195 479.846C613.527 479.86 613.786 480.14 613.772 480.472C613.758 480.796 613.491 481.049 613.17 481.049Z" fill="#363739"/>
<path d="M699.891 480.521C684.778 480.521 669.624 480.107 654.616 479.283C654.284 479.265 654.029 478.982 654.048 478.65C654.066 478.317 654.36 478.049 654.682 478.082C676.873 479.299 699.389 479.617 721.604 479.03C721.91 479.02 722.213 479.283 722.222 479.616C722.231 479.948 721.968 480.225 721.636 480.234C714.413 480.425 707.155 480.521 699.891 480.521Z" fill="#363739"/>
<path d="M663.49 326.502C663.439 326.502 663.387 326.495 663.336 326.482C663.014 326.397 662.822 326.068 662.907 325.747L676.918 272.418C678.448 266.594 680.356 260.648 685.319 257.544C685.599 257.366 685.972 257.451 686.149 257.735C686.325 258.016 686.24 258.388 685.957 258.564C681.365 261.437 679.612 266.901 678.082 272.723L664.071 326.052C664.001 326.323 663.757 326.502 663.49 326.502Z" fill="#363739"/>
<path d="M628.932 73.5304C628.932 73.5304 620.602 100.651 631.39 102.972C639.721 104.765 649.673 100.589 649.935 99.9689C650.197 99.3487 653.887 82.3323 653.887 82.3323L628.932 73.5304Z" fill="#0A0A0E"/>
<path d="M635.791 104.007C634.254 104.007 632.721 103.874 631.265 103.561C629.441 103.168 628.008 102.104 627.006 100.397C622.492 92.7066 628.116 74.1404 628.358 73.3538C628.406 73.197 628.516 73.0664 628.662 72.9929C628.81 72.9194 628.98 72.9082 629.134 72.9623L654.089 81.7639C654.375 81.865 654.541 82.1631 654.477 82.4593C653.859 85.3098 650.762 99.5634 650.491 100.203C650.076 101.184 642.878 104.007 635.791 104.007ZM629.334 74.3096C628.401 77.5839 624.232 93.2915 628.045 99.7885C628.881 101.212 630.017 102.061 631.519 102.384C639.257 104.049 648.411 100.358 649.408 99.6497C649.731 98.5208 651.779 89.2126 653.187 82.7227L629.334 74.3096Z" fill="#363739"/>
<path d="M634.762 96.4236L637.407 117.144L658.919 116.273L653.006 85.4673L634.762 96.4236Z" fill="#0A0A0E"/>
<path d="M637.407 117.745C637.106 117.745 636.849 117.521 636.81 117.22L634.165 96.5003C634.123 96.1706 634.356 95.8692 634.686 95.8268C635.016 95.7875 635.318 96.0184 635.36 96.3476L637.935 116.52L658.197 115.7L652.415 85.5812C652.353 85.2544 652.567 84.9394 652.894 84.8766C653.221 84.8143 653.536 85.0277 653.599 85.3544L659.512 116.16C659.545 116.332 659.501 116.51 659.392 116.647C659.283 116.785 659.119 116.868 658.944 116.875L637.432 117.745C637.424 117.745 637.416 117.745 637.407 117.745Z" fill="#363739"/>
<path d="M650.513 62.8361C650.513 62.8361 647.666 55.561 635.688 55.6864C631.183 55.7336 628.616 55.359 627.166 54.8732C624.216 53.8853 620.944 55.3476 619.949 58.2938C619.256 60.3487 619.702 62.9479 622.908 66.0044C622.908 66.0044 617.851 70.5205 625.851 74.7826C625.851 74.7826 623.634 81.2318 633.567 82.6547C633.567 82.6547 635.103 79.4282 638.238 81.2419C640.082 82.3088 640.238 86.5984 636.948 90.3992C636.948 90.3992 642.181 100.853 651.593 100.74C661.006 100.626 661.019 89.5878 661.091 85.961C661.162 82.3342 666.339 72.5479 660.15 65.3039C656.432 60.9517 650.513 62.8361 650.513 62.8361Z" fill="#363739"/>
<path d="M637.514 83.1793C637.514 83.1793 634.32 81.2186 634.833 87.3839L637.514 83.1793Z" fill="#0A0A0E"/>
<path d="M634.833 87.9861C634.523 87.9861 634.26 87.7487 634.234 87.4342C634.014 84.7957 634.415 83.2012 635.459 82.5594C636.326 82.0274 637.358 82.376 637.831 82.6662C638.114 82.8402 638.203 83.211 638.029 83.4943C637.855 83.7771 637.487 83.8651 637.203 83.6941C637.19 83.6853 636.529 83.3107 636.086 83.5872C635.811 83.7588 635.196 84.4681 635.434 87.3342C635.462 87.6656 635.215 87.9566 634.884 87.9837C634.867 87.9853 634.85 87.9861 634.833 87.9861Z" fill="#363739"/>
<path d="M591.783 147.197L585.87 144.868L576.94 154.352C576.94 154.352 548.235 134.756 533.815 121.8C519.396 108.843 505.605 101.302 502.173 102.14C498.741 102.978 500.032 107.751 507.202 111.881C507.202 111.881 500.953 113.599 502.173 118.854C502.173 118.854 497.719 118.954 498.726 125.332C498.726 125.332 493.648 128.061 495.915 133.719C498.182 139.377 504.475 139.538 504.475 139.538C504.475 139.538 521.566 159.697 539.544 177.269C556.052 193.405 581.037 197.295 601.572 186.757C607.981 183.468 613.922 177.381 618.028 172.871L591.783 147.197Z" fill="#0A0A0E"/>
<path d="M577.185 193.259C563.299 193.259 549.573 187.914 539.123 177.7C522.274 161.23 506.005 142.259 504.183 140.124C502.883 140.022 497.494 139.278 495.357 133.943C493.296 128.799 496.881 125.843 498.075 125.032C497.78 122.75 498.142 120.982 499.153 119.773C499.905 118.872 500.843 118.505 501.47 118.356C501.001 114.859 503.629 112.718 505.817 111.745C501.792 109.173 499.453 106.137 499.783 103.823C499.947 102.675 500.745 101.87 502.031 101.556C505.807 100.637 519.957 108.537 534.219 121.353C547.491 133.279 573.237 151.077 576.856 153.564L585.432 144.456C585.602 144.278 585.863 144.219 586.092 144.309L592.004 146.638C592.079 146.668 592.147 146.712 592.204 146.768L618.45 172.441C618.682 172.668 618.692 173.037 618.474 173.276C614.451 177.695 608.352 183.955 601.848 187.293C594.03 191.304 585.577 193.259 577.185 193.259ZM502.8 102.674C502.617 102.674 502.456 102.691 502.316 102.725C501.519 102.919 501.068 103.346 500.975 103.993C500.746 105.598 502.691 108.588 507.503 111.36C507.714 111.481 507.83 111.716 507.799 111.957C507.769 112.198 507.597 112.396 507.363 112.462C507.131 112.526 501.687 114.095 502.76 118.719C502.801 118.895 502.76 119.081 502.649 119.224C502.538 119.366 502.368 119.452 502.187 119.456C502.14 119.458 500.929 119.512 500.065 120.559C499.239 121.559 498.989 123.134 499.321 125.238C499.361 125.491 499.237 125.741 499.012 125.862C498.825 125.963 494.441 128.419 496.475 133.495C498.563 138.707 504.25 138.929 504.492 138.936C504.662 138.941 504.824 139.018 504.934 139.149C505.106 139.35 522.215 159.488 539.966 176.839C556.359 192.864 581.008 196.635 601.298 186.222C607.422 183.079 613.235 177.211 617.192 172.894L591.449 147.713L586.03 145.577L577.379 154.764C577.176 154.98 576.845 155.015 576.601 154.848C576.314 154.652 547.697 135.082 533.413 122.247C519.6 109.835 506.583 102.674 502.8 102.674Z" fill="#363739"/>
<path d="M504.668 140.42C504.478 140.42 504.291 140.33 504.173 140.163C502.338 137.531 500.629 134.766 499.093 131.945C498.934 131.654 499.042 131.288 499.334 131.129C499.626 130.971 499.992 131.078 500.151 131.371C501.666 134.153 503.352 136.88 505.161 139.474C505.351 139.747 505.284 140.122 505.012 140.312C504.907 140.385 504.787 140.42 504.668 140.42Z" fill="#363739"/>
<path d="M505.257 128.409C505.116 128.409 504.976 128.36 504.861 128.261C503.133 126.759 500.846 125.959 498.547 126.06C498.538 126.061 498.529 126.061 498.52 126.061C498.2 126.061 497.933 125.809 497.919 125.486C497.903 125.154 498.161 124.873 498.493 124.858C501.074 124.746 503.693 125.65 505.652 127.353C505.903 127.571 505.93 127.952 505.711 128.202C505.592 128.339 505.424 128.409 505.257 128.409Z" fill="#363739"/>
<path d="M510.14 123.312C509.991 123.312 509.841 123.257 509.725 123.145C507.671 121.189 504.992 119.91 502.18 119.543C501.851 119.5 501.618 119.198 501.661 118.868C501.704 118.539 502.005 118.304 502.337 118.35C505.399 118.75 508.318 120.143 510.555 122.274C510.796 122.504 510.805 122.884 510.576 123.125C510.458 123.25 510.299 123.312 510.14 123.312Z" fill="#363739"/>
<path d="M514.198 116.965C514.068 116.965 513.937 116.922 513.827 116.836C511.664 115.136 509.29 113.71 506.773 112.6C506.469 112.465 506.331 112.11 506.465 111.806C506.599 111.503 506.955 111.365 507.26 111.498C509.869 112.65 512.33 114.127 514.571 115.89C514.833 116.096 514.878 116.474 514.672 116.735C514.553 116.886 514.376 116.965 514.198 116.965Z" fill="#363739"/>
<path d="M656.691 55.2863C653.967 53.844 651.443 53.1926 650.107 54.9344C648.772 56.6759 649.8 59.8861 652.127 61.2391C650.512 60.2068 648.841 59.15 647.052 58.738C645.262 58.326 643.308 58.7265 642.619 60.1374C642.013 61.3773 642.531 63.088 643.514 64.423C644 65.082 644.582 65.6691 645.21 66.2172C644.016 65.8413 642.666 66.012 641.932 66.7956C640.678 68.1325 640.66 70.2434 641.928 72.0522C643.002 73.5828 644.947 75.2402 646.809 76.6962C648.877 78.4161 650.482 79.6224 653.431 81.6825C650.084 81.1648 644.33 80.5872 644.806 84.6828C645.47 90.3842 670.939 93.7055 674.913 96.1399C682.352 100.696 688.114 104.03 688.114 104.03C691.524 103.783 704.618 87.0533 706.701 81.4776C703.572 78.8976 677.327 61.7279 666.586 55.3699C664.785 54.3038 662.897 53.2164 660.941 52.9533C658.984 52.6896 656.952 53.5232 656.691 55.2863Z" fill="#0A0A0E"/>
<path d="M688.113 104.632C688.007 104.632 687.903 104.605 687.811 104.551C687.753 104.518 681.958 101.161 674.598 96.653C673.327 95.8749 669.505 94.9481 665.08 93.8754C653.53 91.0743 644.658 88.6238 644.207 84.7525C644.072 83.5899 644.366 82.6519 645.079 81.9653C646.366 80.7257 648.818 80.603 651.131 80.7935C649.292 79.4721 647.984 78.4576 646.423 77.1587C644.729 75.8344 642.617 74.0847 641.434 72.3981C640.006 70.3609 640.029 67.9443 641.492 66.3844C641.991 65.8508 642.738 65.5276 643.568 65.4459C643.372 65.2243 643.193 65.0027 643.029 64.78C642.055 63.4587 641.294 61.4757 642.077 59.874C642.956 58.0743 645.277 57.7112 647.187 58.1519C647.936 58.3246 648.663 58.6027 649.365 58.9377C649.207 58.568 649.086 58.1847 649.009 57.7956C648.764 56.556 648.984 55.4098 649.629 54.5683C651.379 52.2855 654.626 53.5773 656.317 54.4161C657.04 52.7582 659.149 52.1046 661.021 52.3565C663.165 52.6451 665.231 53.8688 666.892 54.8522C677.754 61.2822 703.926 78.4101 707.084 81.0134C707.282 81.1768 707.355 81.4478 707.265 81.6883C705.15 87.3484 692.026 104.35 688.156 104.631C688.142 104.631 688.128 104.632 688.113 104.632ZM649.483 81.9186C648.056 81.9186 646.648 82.126 645.914 82.832C645.48 83.25 645.313 83.8331 645.404 84.6134C645.794 87.9596 657.571 90.8153 665.365 92.7049C670.075 93.8476 673.795 94.7492 675.227 95.6265C681.845 99.6795 687.193 102.799 688.232 103.404C691.288 102.666 703.381 87.8429 705.975 81.671C701.636 78.3456 676.786 62.1079 666.278 55.8871C664.711 54.9595 662.761 53.8046 660.86 53.5492C659.269 53.3311 657.497 53.9587 657.287 55.374C657.258 55.5675 657.137 55.735 656.963 55.8229C656.789 55.9112 656.581 55.9087 656.409 55.8177C653.433 54.2421 651.526 54.0705 650.585 55.3C650.154 55.8625 650.014 56.6658 650.191 57.5617C650.424 58.7355 651.151 59.8399 652.125 60.5235C652.235 60.5934 652.344 60.6628 652.452 60.7314C652.727 60.9085 652.812 61.2727 652.641 61.5525C652.47 61.8311 652.108 61.9227 651.824 61.7587C651.701 61.6877 651.581 61.6106 651.464 61.5295C650.063 60.638 648.504 59.6893 646.917 59.3243C645.519 59.0027 643.747 59.2013 643.159 60.4011C642.709 61.3232 643.038 62.7615 643.999 64.0656C644.408 64.621 644.934 65.1765 645.606 65.7636C645.82 65.9511 645.874 66.2631 645.735 66.5117C645.595 66.7598 645.298 66.8749 645.028 66.791C643.996 66.4647 642.905 66.6369 642.371 67.2065C641.308 68.3396 641.329 70.1484 642.421 71.7068C643.525 73.2814 645.666 75.0377 647.18 76.2219C649.225 77.9227 650.825 79.127 653.775 81.1888C654.005 81.3492 654.094 81.6467 653.989 81.9066C653.885 82.1659 653.617 82.3175 653.338 82.2768C652.581 82.1601 651.021 81.9186 649.483 81.9186Z" fill="#363739"/>
<path d="M665.271 89.6541C665.165 89.6541 665.057 89.626 664.96 89.5672C664.871 89.5131 656.065 84.1771 653.087 82.1828C652.811 81.9976 652.737 81.6232 652.922 81.3476C653.108 81.0713 653.482 80.9978 653.758 81.1825C656.712 83.1621 665.496 88.4842 665.584 88.5375C665.868 88.7096 665.96 89.0798 665.787 89.3645C665.674 89.5506 665.475 89.6541 665.271 89.6541Z" fill="#363739"/>
<path d="M659.892 77.8443C659.763 77.8443 659.632 77.8025 659.522 77.7167C655.311 74.4317 649.914 70.4915 645.577 67.326L644.79 66.7511C644.521 66.5546 644.463 66.1781 644.659 65.9101C644.855 65.6415 645.232 65.5828 645.5 65.779L646.288 66.3538C650.631 69.5249 656.037 73.4716 660.263 76.768C660.525 76.9727 660.571 77.3506 660.367 77.6126C660.248 77.765 660.071 77.8443 659.892 77.8443Z" fill="#363739"/>
<path d="M664.936 70.597C664.818 70.597 664.698 70.5623 664.593 70.4894L652.071 61.8055C651.798 61.6161 651.73 61.2412 651.92 60.968C652.11 60.6959 652.485 60.6265 652.758 60.8169L665.28 69.5008C665.553 69.6902 665.621 70.065 665.431 70.3383C665.314 70.5063 665.127 70.597 664.936 70.597Z" fill="#363739"/>
<path d="M668.745 63.9437C668.623 63.9437 668.499 63.9069 668.392 63.8293C664.722 61.1681 660.903 58.6131 657.04 56.235C656.757 56.0604 656.669 55.6896 656.843 55.4068C657.018 55.124 657.389 55.0347 657.672 55.2098C661.561 57.6038 665.405 60.1757 669.099 62.8547C669.368 63.0497 669.429 63.4265 669.233 63.6951C669.115 63.8571 668.931 63.9437 668.745 63.9437Z" fill="#363739"/>
<path d="M708.211 212.18C707.973 212.18 707.748 212.038 707.653 211.804L700.505 194.161C700.38 193.853 700.529 193.502 700.837 193.378C701.146 193.253 701.497 193.4 701.621 193.71L708.77 211.352C708.894 211.66 708.745 212.011 708.437 212.136C708.363 212.166 708.287 212.18 708.211 212.18Z" fill="#363739"/>
<path d="M694.091 71.7181C694.091 71.7181 691.159 84.599 676.376 97.6665C681.138 102.199 699.671 116.797 699.671 116.797C699.671 116.797 658.179 115.201 646.336 114.759C625.949 113.998 609.432 119.139 599.582 128.953L576.147 151.035L545.196 128.67L518.414 156.443L543.88 181.681C562.698 199.424 592.071 199.437 610.903 181.709L621.712 171.932L624.537 231.312L716.054 218.096L703.327 156.624C703.327 156.624 747.431 159.158 749.839 135.061C753.405 99.3671 694.091 71.7181 694.091 71.7181Z" fill="#00B7DF"/>
<path d="M724.695 118.382C724.687 118.382 724.678 118.382 724.671 118.382L699.645 117.398C699.313 117.385 699.054 117.105 699.067 116.773C699.08 116.44 699.388 116.185 699.692 116.195L724.718 117.179C725.05 117.192 725.309 117.472 725.296 117.804C725.284 118.128 725.017 118.382 724.695 118.382Z" fill="#363739"/>
<path d="M621.716 172.534C621.397 172.534 621.132 172.285 621.115 171.963L620.665 163.242C620.648 162.91 620.904 162.627 621.236 162.61C621.567 162.582 621.851 162.847 621.869 163.18L622.318 171.901C622.335 172.233 622.08 172.516 621.748 172.534C621.737 172.534 621.726 172.534 621.716 172.534Z" fill="#363739"/>
<path d="M180.485 499.398H73.2841C73.2841 499.398 36.452 485.696 61.6056 447.598C63.014 445.465 66.332 446.621 66.0818 449.165C64.8911 461.279 65.3745 481.403 80.0688 488.69V484.671C80.0688 475.416 82.8517 466.376 88.0555 458.725L123.43 406.714C123.43 406.714 94.9299 396.558 143.201 364.626C143.201 364.626 141.847 348.206 161.689 355.339C161.689 355.339 195.076 334.349 201.442 336.327C207.809 338.305 217.152 349.95 187.649 386.858L182.049 399.071C181.074 401.196 180.57 403.506 180.57 405.844V481.503C180.57 484.762 182.6 487.617 185.61 488.863C188.068 489.881 190.06 491.807 187.82 495.419C186.26 497.936 183.445 499.398 180.485 499.398Z" fill="#0A0A0E"/>
<path d="M180.486 500H73.2852C73.2133 500 73.1422 499.987 73.0752 499.962C72.9251 499.907 58.0167 494.22 53.5131 480.435C50.3698 470.816 52.9236 459.656 61.1042 447.267C61.8941 446.07 63.3293 445.586 64.6786 446.064C66.0162 446.537 66.822 447.807 66.6826 449.223C65.5804 460.441 65.8232 480.135 79.4675 487.694V484.67C79.4675 475.258 82.2655 466.169 87.5584 458.386L122.517 406.988C120.563 406.11 115.276 403.211 114.554 397.276C113.481 388.463 122.911 377.374 142.583 364.313C142.541 362.901 142.663 357.786 146.443 354.892C149.743 352.364 154.848 352.289 161.618 354.673C166.058 351.891 195.304 333.792 201.623 335.751C203.061 336.198 206.563 337.751 208.022 342.503C210.027 349.035 208.206 362.089 188.167 387.176L182.598 399.321C181.653 401.382 181.173 403.576 181.173 405.844V481.502C181.173 484.462 183.006 487.134 185.842 488.307C187.667 489.063 188.804 490.105 189.223 491.403C189.63 492.67 189.331 494.127 188.333 495.736C186.702 498.367 183.695 500 180.486 500ZM73.3981 498.796H180.486C183.282 498.796 185.896 497.381 187.31 495.103C188.112 493.807 188.37 492.686 188.075 491.772C187.77 490.825 186.864 490.033 185.381 489.419C182.093 488.058 179.968 484.951 179.968 481.502V405.843C179.968 403.402 180.485 401.038 181.502 398.819L187.102 386.606C187.122 386.562 187.148 386.52 187.179 386.482C206.936 361.767 208.792 349.116 206.87 342.855C205.58 338.652 202.52 337.291 201.265 336.901C196.258 335.332 171.232 350.05 162.011 355.847C161.854 355.946 161.661 355.967 161.486 355.904C154.995 353.57 150.182 353.55 147.181 355.842C143.381 358.746 143.798 364.518 143.803 364.576C143.82 364.795 143.717 365.006 143.534 365.127C119.301 381.159 115.049 391.379 115.75 397.131C116.531 403.545 123.562 406.121 123.634 406.147C123.809 406.209 123.946 406.35 124.004 406.527C124.062 406.704 124.034 406.898 123.929 407.052L88.5548 459.063C83.3977 466.645 80.672 475.5 80.672 484.67V488.69C80.672 488.898 80.5642 489.092 80.3873 489.201C80.2091 489.311 79.9892 489.322 79.8022 489.229C64.6513 481.716 64.3278 460.866 65.4836 449.106C65.5872 448.05 64.8976 447.419 64.2761 447.198C63.6481 446.977 62.7015 447.034 62.1098 447.93C54.1417 459.998 51.6344 470.808 54.6577 480.062C58.7959 492.726 72.1229 498.29 73.3981 498.796Z" fill="#363739"/>
<path d="M179.798 499.098C179.75 499.098 179.702 499.093 179.654 499.082C179.331 499.003 179.133 498.677 179.212 498.354C179.756 496.132 177.925 493.867 175.917 493.041C173.7 492.13 171.131 492.365 168.685 492.755L167.762 492.906C165.515 493.277 163.19 493.662 160.882 493.271C160.642 493.23 160.45 493.05 160.396 492.813C160.341 492.576 160.434 492.33 160.631 492.188C168.148 486.796 173.611 478.521 175.62 469.487C176.435 465.819 176.545 462.672 175.957 459.863C175.257 456.528 173.467 453.663 171.046 452.002C166.342 448.774 160.022 450.085 155.55 451.754C147.662 454.697 140.708 459.726 135.44 466.297C135.233 466.557 134.855 466.601 134.593 466.391C134.333 466.183 134.292 465.804 134.5 465.545C139.903 458.803 147.037 453.644 155.129 450.626C159.868 448.857 166.595 447.489 171.728 451.009C174.401 452.844 176.372 455.98 177.135 459.616C177.76 462.595 177.649 465.909 176.796 469.747C174.837 478.556 169.695 486.665 162.588 492.226C164.24 492.27 165.922 491.991 167.566 491.718L168.495 491.566C171.115 491.148 173.884 490.903 176.375 491.927C178.899 492.964 181.087 495.758 180.382 498.639C180.315 498.915 180.069 499.098 179.798 499.098Z" fill="#363739"/>
<path d="M164.942 449.521C164.863 449.521 164.782 449.506 164.705 449.473C164.399 449.342 164.258 448.987 164.389 448.682L171.418 432.335C171.549 432.028 171.903 431.889 172.209 432.019C172.514 432.15 172.656 432.505 172.524 432.81L165.496 449.157C165.398 449.385 165.175 449.521 164.942 449.521Z" fill="#363739"/>
<path d="M205.986 350.103C205.959 350.103 205.932 350.102 205.904 350.098C203.206 349.734 200.658 348.326 198.916 346.233C197.173 344.14 196.249 341.379 196.379 338.658C196.395 338.326 196.679 338.063 197.01 338.086C197.342 338.102 197.599 338.384 197.583 338.716C197.466 341.139 198.29 343.599 199.842 345.463C201.394 347.326 203.662 348.581 206.065 348.905C206.395 348.95 206.626 349.252 206.582 349.582C206.541 349.884 206.282 350.103 205.986 350.103Z" fill="#363739"/>
<path d="M157.765 421.016C156.941 421.016 156.125 420.949 155.326 420.811C150.058 419.902 145.764 415.878 144.885 411.026C144.138 406.908 145.837 402.745 147.4 399.577C150.919 392.445 155.584 386.008 161.265 380.446C161.503 380.212 161.884 380.217 162.116 380.454C162.349 380.691 162.346 381.073 162.108 381.305C156.524 386.773 151.939 393.099 148.48 400.109C146.999 403.111 145.386 407.04 146.071 410.811C146.849 415.107 150.827 418.813 155.531 419.625C159.834 420.368 164.673 418.893 168.479 415.679C171.747 412.918 174.326 408.966 176.144 403.929C177.775 399.411 178.613 394.589 179.424 389.925C179.481 389.598 179.793 389.38 180.12 389.435C180.448 389.492 180.668 389.803 180.611 390.131C179.791 394.846 178.944 399.722 177.277 404.338C175.387 409.575 172.688 413.7 169.256 416.598C165.883 419.446 161.732 421.016 157.765 421.016Z" fill="#363739"/>
<path d="M124.285 406.199C124.161 406.199 124.036 406.161 123.928 406.081C123.66 405.884 123.604 405.507 123.802 405.239L137.865 386.233C138.062 385.967 138.439 385.909 138.708 386.108C138.975 386.305 139.032 386.682 138.833 386.949L124.77 405.955C124.652 406.114 124.47 406.199 124.285 406.199Z" fill="#363739"/>
<path d="M143.721 383.035C143.703 383.035 143.685 383.034 143.666 383.033C140.984 382.791 138.551 381.041 137.468 378.574C136.384 376.109 136.741 373.133 138.377 370.992C139.778 369.161 142.014 368.073 144.299 368.049L143.172 366.028C143.011 365.737 143.115 365.371 143.406 365.209C143.697 365.05 144.063 365.151 144.225 365.442L145.891 368.431C146.003 368.631 145.991 368.878 145.86 369.066C145.729 369.255 145.506 369.35 145.275 369.319C143.069 368.986 140.686 369.954 139.335 371.724C137.982 373.493 137.675 376.052 138.571 378.09C139.466 380.129 141.557 381.633 143.775 381.833C144.106 381.863 144.351 382.156 144.32 382.487C144.292 382.8 144.03 383.035 143.721 383.035Z" fill="#363739"/>
<path d="M171.249 378.312C171.229 378.312 171.209 378.311 171.189 378.309C170.858 378.276 170.617 377.981 170.649 377.651C171.429 369.83 168.257 361.739 162.371 356.535C162.122 356.315 162.099 355.935 162.319 355.685C162.54 355.436 162.922 355.414 163.17 355.633C169.34 361.089 172.666 369.571 171.848 377.77C171.817 378.081 171.555 378.312 171.249 378.312Z" fill="#363739"/>
<path d="M165.333 414.959C165.006 414.959 164.737 414.698 164.73 414.37C164.521 404.487 168.675 394.523 175.843 387.718C176.084 387.488 176.466 387.499 176.694 387.74C176.924 387.981 176.914 388.361 176.673 388.59C169.747 395.166 165.732 404.794 165.935 414.345C165.942 414.677 165.678 414.952 165.346 414.959C165.341 414.959 165.337 414.959 165.333 414.959Z" fill="#363739"/>
<path d="M326.249 23.4461L204.99 233.465C196.69 247.839 207.073 265.803 223.681 265.803H466.198C482.806 265.803 493.188 247.84 484.889 233.465L363.63 23.4461C355.326 9.06358 334.553 9.06358 326.249 23.4461Z" fill="#00B7DF"/>
<path d="M335.787 41.1221L225.078 232.869C221.014 239.909 226.098 248.706 234.232 248.706H455.65C463.784 248.706 468.869 239.909 464.804 232.869L354.095 41.1221C350.028 34.0781 339.854 34.0781 335.787 41.1221Z" fill="#0A0A0E"/>
<path d="M315.29 162.723H321.597V167.441H315.29V178H309.483V167.441H288.781V164.035L309.139 132.513H315.29L315.29 162.723ZM295.338 162.723H309.483V140.417L308.796 141.667L295.338 162.723Z" fill="#E6E6E6"/>
<path d="M355.316 158.599C355.316 165.368 354.161 170.398 351.85 173.689C349.539 176.98 345.928 178.625 341.015 178.625C336.165 178.625 332.574 177.016 330.243 173.798C327.912 170.58 326.704 165.775 326.621 159.38V151.664C326.621 144.978 327.776 140.011 330.087 136.762C332.398 133.513 336.02 131.889 340.953 131.889C345.844 131.889 349.446 133.456 351.756 136.591C354.067 139.725 355.253 144.562 355.316 151.102V158.599ZM349.539 150.696C349.539 145.802 348.852 142.235 347.479 139.995C346.105 137.757 343.929 136.637 340.953 136.637C337.997 136.637 335.843 137.751 334.49 139.98C333.136 142.209 332.439 145.635 332.397 150.258V159.505C332.397 164.421 333.11 168.049 334.536 170.393C335.962 172.736 338.122 173.908 341.015 173.908C343.867 173.908 345.985 172.804 347.37 170.596C348.754 168.388 349.477 164.91 349.539 160.161V150.696Z" fill="#E6E6E6"/>
<path d="M387.103 162.723H393.41V167.441H387.103V178H381.295V167.441H360.594V164.035L380.952 132.513H387.103L387.103 162.723ZM367.15 162.723H381.295V140.417L380.608 141.667L367.15 162.723Z" fill="#E6E6E6"/>
<path d="M302.575 209.403H290.753V219.076H304.486V222.019H287.156V194.727H304.298V197.67H290.753V206.461H302.575V209.403Z" fill="#E6E6E6"/>
<path d="M318.956 210.978H312.55V222.019H308.934V194.727H317.964C321.036 194.727 323.4 195.427 325.055 196.826C326.709 198.226 327.537 200.263 327.537 202.937C327.537 204.636 327.078 206.117 326.16 207.379C325.242 208.642 323.965 209.585 322.329 210.21L328.735 221.794V222.019H324.876L318.956 210.978ZM312.55 208.035H318.076C319.862 208.035 321.282 207.572 322.338 206.646C323.393 205.72 323.921 204.48 323.921 202.928C323.921 201.237 323.418 199.942 322.413 199.04C321.407 198.139 319.955 197.682 318.057 197.67H312.55V208.035Z" fill="#E6E6E6"/>
<path d="M342.589 210.978H336.182V222.019H332.566V194.727H341.597C344.669 194.727 347.033 195.427 348.688 196.826C350.342 198.226 351.17 200.263 351.17 202.937C351.17 204.636 350.711 206.117 349.793 207.379C348.875 208.642 347.598 209.585 345.961 210.21L352.368 221.794V222.019H348.509L342.589 210.978ZM336.182 208.035H341.709C343.495 208.035 344.915 207.572 345.971 206.646C347.026 205.72 347.554 204.48 347.554 202.928C347.554 201.237 347.051 199.942 346.045 199.04C345.04 198.139 343.588 197.682 341.69 197.67H336.182V208.035Z" fill="#E6E6E6"/>
<path d="M377.187 209.254C377.187 211.928 376.738 214.262 375.839 216.255C374.939 218.249 373.665 219.77 372.017 220.819C370.368 221.869 368.445 222.394 366.247 222.394C364.098 222.394 362.194 221.866 360.533 220.81C358.871 219.755 357.582 218.249 356.664 216.293C355.746 214.337 355.275 212.072 355.25 209.497V207.529C355.25 204.905 355.705 202.587 356.617 200.575C357.528 198.563 358.818 197.023 360.486 195.955C362.153 194.886 364.061 194.352 366.209 194.352C368.395 194.352 370.321 194.88 371.989 195.936C373.656 196.992 374.939 198.523 375.839 200.528C376.738 202.534 377.188 204.868 377.188 207.529L377.187 209.254ZM373.609 207.491C373.609 204.255 372.959 201.772 371.661 200.041C370.361 198.31 368.544 197.444 366.209 197.444C363.936 197.444 362.146 198.31 360.841 200.041C359.536 201.772 358.865 204.174 358.827 207.248V209.254C358.827 212.391 359.486 214.856 360.804 216.649C362.121 218.442 363.936 219.338 366.247 219.338C368.569 219.338 370.368 218.492 371.642 216.799C372.916 215.106 373.572 212.678 373.609 209.517V207.491Z" fill="#E6E6E6"/>
<path d="M392.589 210.978H386.182V222.019H382.566V194.727H391.597C394.669 194.727 397.033 195.427 398.688 196.826C400.342 198.226 401.17 200.263 401.17 202.937C401.17 204.636 400.711 206.117 399.793 207.379C398.875 208.642 397.598 209.585 395.961 210.21L402.368 221.794V222.019H398.509L392.589 210.978ZM386.182 208.035H391.709C393.494 208.035 394.915 207.572 395.97 206.646C397.026 205.72 397.554 204.48 397.554 202.928C397.554 201.237 397.051 199.942 396.045 199.04C395.04 198.139 393.588 197.682 391.69 197.67H386.182V208.035Z" fill="#E6E6E6"/>
<path d="M171.071 55.4744H63.8921C52.4619 55.4744 43.1953 64.7457 43.1953 76.1826V109.748C43.1953 121.185 52.4616 130.456 63.8921 130.456H171.071C182.502 130.456 191.768 121.185 191.768 109.748V76.1826C191.768 64.7457 182.502 55.4744 171.071 55.4744Z" fill="#020206"/>
<path d="M117.486 120.763C132.83 120.763 145.268 108.317 145.268 92.9651C145.268 77.6129 132.83 65.1675 117.486 65.1675C102.142 65.1675 89.7031 77.6129 89.7031 92.9651C89.7031 108.317 102.142 120.763 117.486 120.763Z" fill="#0A0A0E"/>
<path d="M107.23 88.9273C108.646 88.9273 109.795 87.7782 109.795 86.3607C109.795 84.9431 108.646 83.794 107.23 83.794C105.813 83.794 104.664 84.9431 104.664 86.3607C104.664 87.7782 105.813 88.9273 107.23 88.9273Z" fill="#363739"/>
<path d="M127.753 88.9273C129.17 88.9273 130.319 87.7782 130.319 86.3607C130.319 84.9431 129.17 83.794 127.753 83.794C126.336 83.794 125.188 84.9431 125.188 86.3607C125.188 87.7782 126.336 88.9273 127.753 88.9273Z" fill="#363739"/>
<path d="M105.852 105.151C105.767 105.151 105.681 105.133 105.599 105.095C105.298 104.956 105.167 104.599 105.305 104.298C105.338 104.227 108.694 97.1826 117.298 97.1826C126.001 97.1826 129.494 104.167 129.528 104.238C129.673 104.536 129.548 104.895 129.249 105.041C128.951 105.188 128.59 105.062 128.445 104.765C128.317 104.504 125.228 98.3864 117.297 98.3864C109.482 98.3864 106.521 104.541 106.399 104.803C106.296 105.022 106.079 105.151 105.852 105.151Z" fill="#363739"/>
<path d="M193.576 168.174C175.041 168.174 159.961 153.086 159.961 134.541C159.961 134.208 160.23 133.939 160.563 133.939C160.896 133.939 161.166 134.208 161.166 134.541C161.166 152.423 175.705 166.97 193.576 166.97C193.909 166.97 194.178 167.239 194.178 167.572C194.178 167.904 193.909 168.174 193.576 168.174Z" fill="#363739"/>
<path d="M539.047 100.146C538.987 100.146 538.925 100.138 538.864 100.118C538.547 100.017 538.372 99.6781 538.474 99.3615L542.631 86.3699C542.679 86.2177 542.787 86.0912 542.929 86.0177C543.071 85.9448 543.236 85.9309 543.389 85.98C548.975 87.7746 554.923 87.2866 560.138 84.6054C565.361 81.9207 569.224 77.3584 571.016 71.7603C574.712 60.2111 568.33 47.7991 556.791 44.0915C547.932 41.2439 538.203 44.3106 532.582 51.721C532.382 51.9844 532.003 52.0371 531.738 51.8368C531.474 51.6357 531.421 51.2584 531.622 50.9934C537.552 43.1775 547.815 39.9431 557.159 42.9453C569.33 46.8557 576.061 59.9464 572.163 72.127C570.274 78.0322 566.199 82.844 560.689 85.6765C555.366 88.4117 549.319 88.9836 543.597 87.3033L539.621 99.7281C539.539 99.9836 539.303 100.146 539.047 100.146Z" fill="#363739"/>
<path d="M535.466 111.398C535.405 111.398 535.343 111.39 535.282 111.37C534.965 111.269 534.791 110.93 534.892 110.613L536.624 105.2C536.726 104.883 537.063 104.705 537.382 104.81C537.698 104.911 537.873 105.25 537.771 105.567L536.039 110.98C535.957 111.235 535.721 111.398 535.466 111.398Z" fill="#363739"/>
<path d="M461.606 114.419C461.546 114.419 461.484 114.41 461.423 114.39C461.106 114.289 460.931 113.95 461.033 113.634L464.55 102.643C464.598 102.491 464.706 102.365 464.848 102.291C464.99 102.218 465.155 102.204 465.307 102.254C470.007 103.763 475.015 103.353 479.405 101.097C483.802 98.8372 487.053 94.9973 488.561 90.2847C491.672 80.5634 486.3 70.1161 476.587 66.9959C469.129 64.6002 460.942 67.1811 456.211 73.4169C456.011 73.6803 455.632 73.7336 455.367 73.5328C455.103 73.3317 455.05 72.9544 455.251 72.6893C460.291 66.0453 469.017 63.2978 476.956 65.8497C487.3 69.1729 493.021 80.2989 489.708 90.6514C488.103 95.6702 484.639 99.7596 479.956 102.167C475.459 104.479 470.354 104.972 465.516 103.575L462.18 114C462.098 114.256 461.862 114.419 461.606 114.419Z" fill="#363739"/>
<path d="M458.571 123.937C458.51 123.937 458.449 123.928 458.388 123.908C458.071 123.807 457.896 123.469 457.998 123.152L459.464 118.572C459.565 118.255 459.902 118.077 460.22 118.183C460.538 118.284 460.712 118.622 460.61 118.939L459.144 123.519C459.063 123.774 458.826 123.937 458.571 123.937Z" fill="#363739"/>
<path d="M546.445 300.099C546.382 300.099 546.317 300.088 546.253 300.067C545.938 299.961 545.768 299.62 545.875 299.305L550.152 286.633C550.203 286.481 550.312 286.356 550.455 286.285C550.599 286.216 550.764 286.204 550.915 286.255C556.37 288.094 562.214 287.7 567.371 285.144C572.529 282.588 576.384 278.177 578.225 272.724C582.024 261.465 575.956 249.217 564.698 245.42C556.054 242.505 546.467 245.367 540.842 252.544C540.637 252.805 540.258 252.852 539.997 252.647C539.735 252.441 539.689 252.064 539.894 251.802C545.833 244.225 555.956 241.201 565.083 244.279C576.971 248.289 583.378 261.221 579.366 273.108C577.422 278.867 573.352 283.524 567.906 286.222C562.64 288.831 556.697 289.308 551.103 287.58L547.016 299.689C546.931 299.94 546.696 300.099 546.445 300.099Z" fill="#363739"/>
<path d="M542.762 311.073C542.699 311.073 542.634 311.064 542.57 311.042C542.255 310.936 542.085 310.594 542.192 310.279L543.974 305C544.08 304.684 544.422 304.514 544.737 304.622C545.052 304.728 545.222 305.069 545.115 305.384L543.333 310.664C543.248 310.915 543.013 311.073 542.762 311.073Z" fill="#363739"/>
<path d="M77.4671 335.748C119.912 335.748 154.321 301.321 154.321 258.852C154.321 216.384 119.912 181.957 77.4671 181.957C35.0219 181.957 0.613281 216.384 0.613281 258.852C0.613281 301.321 35.0219 335.748 77.4671 335.748Z" fill="#0A0A0E"/>
<path d="M107.965 290.772C109.867 289.406 111.675 287.882 113.368 286.206C113.715 286.479 114.075 286.741 114.461 286.977C119.647 290.14 126.415 288.498 129.577 283.309C132.739 278.121 131.098 271.349 125.912 268.186C125.525 267.95 125.128 267.75 124.726 267.566C126.089 263.225 126.768 258.765 126.79 254.333C127.228 254.281 127.668 254.211 128.108 254.104C134.011 252.672 137.635 246.724 136.204 240.817C134.773 234.911 128.827 231.284 122.924 232.716C122.485 232.823 122.062 232.962 121.648 233.118C119.599 229.187 116.954 225.534 113.755 222.299C114.029 221.953 114.29 221.593 114.526 221.206C117.688 216.017 116.046 209.246 110.86 206.082C105.674 202.919 98.9069 204.561 95.7451 209.749C95.5094 210.136 95.309 210.534 95.1263 210.936C90.7871 209.572 86.33 208.893 81.8997 208.871C81.8483 208.432 81.7783 207.992 81.672 207.552C80.2406 201.646 74.295 198.019 68.3921 199.451C62.4892 200.883 58.8644 206.832 60.2958 212.738C60.4024 213.178 60.5413 213.601 60.6963 214.015C58.5098 215.157 56.4088 216.483 54.418 217.987L58.034 231.973L65.5969 232.808L69.3198 237.743C75.8117 232.844 84.8935 232.118 92.2581 236.611C101.889 242.486 104.936 255.06 99.0647 264.697C97.6828 266.964 95.9305 268.867 93.9326 270.374L96.4486 282.304L102.718 283.144L107.965 290.772Z" fill="#0A0A0E"/>
<path d="M107.966 291.374C107.931 291.374 107.897 291.371 107.862 291.365C107.703 291.337 107.561 291.247 107.469 291.113L102.374 283.706L96.3697 282.901C96.1168 282.867 95.9126 282.677 95.8603 282.428L93.344 270.499C93.2959 270.271 93.3839 270.035 93.5704 269.895C95.5642 268.389 97.24 266.536 98.5506 264.384C104.24 255.046 101.277 242.818 91.9447 237.125C84.9565 232.862 76.2179 233.293 69.6828 238.224C69.5551 238.32 69.3935 238.363 69.2363 238.34C69.078 238.318 68.9353 238.234 68.8387 238.106L65.2728 233.378L57.9688 232.571C57.72 232.544 57.5141 232.366 57.4518 232.124L53.8357 218.138C53.7745 217.903 53.8617 217.653 54.0558 217.507C55.9173 216.1 57.9002 214.83 59.9558 213.727C59.8571 213.43 59.7764 213.151 59.711 212.881C58.2037 206.662 62.0343 200.375 68.2501 198.867C71.2621 198.136 74.3778 198.624 77.0234 200.236C79.669 201.85 81.5278 204.398 82.2575 207.411C82.324 207.684 82.3798 207.966 82.4276 208.275C86.6255 208.345 90.7845 208.994 94.8068 210.208C94.9463 209.93 95.0863 209.675 95.2309 209.438C96.8449 206.789 99.393 204.929 102.406 204.199C105.414 203.468 108.53 203.955 111.175 205.569C116.635 208.9 118.37 216.056 115.042 221.519C114.895 221.76 114.734 221.998 114.55 222.251C117.474 225.276 119.956 228.677 121.939 232.377C122.232 232.279 122.511 232.198 122.783 232.132C125.794 231.403 128.91 231.888 131.556 233.501C134.202 235.115 136.06 237.663 136.79 240.676C138.298 246.895 134.467 253.182 128.251 254.69C127.978 254.756 127.693 254.812 127.388 254.86C127.318 259.059 126.669 263.221 125.455 267.247C125.735 267.387 125.987 267.526 126.226 267.673C131.687 271.003 133.421 278.159 130.093 283.623C128.479 286.271 125.931 288.131 122.917 288.861C119.907 289.592 116.793 289.105 114.148 287.491C113.911 287.346 113.67 287.184 113.418 287C111.825 288.541 110.111 289.973 108.318 291.262C108.214 291.335 108.091 291.374 107.966 291.374ZM96.9516 281.764L102.799 282.549C102.967 282.572 103.119 282.664 103.215 282.804L108.111 289.921C109.814 288.662 111.438 287.27 112.945 285.779C113.162 285.565 113.504 285.547 113.742 285.734C114.112 286.026 114.45 286.264 114.776 286.463C117.146 287.909 119.937 288.344 122.633 287.691C125.333 287.037 127.617 285.37 129.063 282.997C132.047 278.099 130.493 271.685 125.598 268.7C125.271 268.5 124.914 268.314 124.477 268.115C124.2 267.989 124.061 267.677 124.152 267.387C125.48 263.154 126.166 258.761 126.188 254.33C126.19 254.026 126.418 253.771 126.721 253.735C127.184 253.681 127.591 253.611 127.967 253.52C133.537 252.168 136.97 246.534 135.619 240.96C134.965 238.26 133.299 235.976 130.928 234.529C128.558 233.084 125.765 232.647 123.067 233.302C122.694 233.393 122.299 233.517 121.861 233.682C121.576 233.787 121.255 233.666 121.115 233.396C119.068 229.47 116.448 225.879 113.328 222.724C113.114 222.508 113.095 222.167 113.283 221.928C113.581 221.549 113.813 221.22 114.013 220.893C116.996 215.996 115.442 209.582 110.547 206.596C108.178 205.15 105.388 204.714 102.689 205.368C99.9893 206.023 97.7062 207.69 96.2604 210.063C96.0616 210.389 95.8705 210.756 95.6752 211.185C95.5495 211.462 95.2358 211.601 94.9466 211.51C90.717 210.181 86.3269 209.495 81.898 209.473C81.5939 209.471 81.3386 209.243 81.3027 208.941C81.2461 208.463 81.1781 208.067 81.0876 207.694C80.433 204.994 78.7673 202.71 76.3962 201.263C74.0264 199.817 71.2331 199.382 68.5352 200.036C62.964 201.388 59.5309 207.023 60.8818 212.597C60.9723 212.971 61.0929 213.355 61.2611 213.804C61.3674 214.088 61.2452 214.407 60.9759 214.548C58.9321 215.615 56.9582 216.851 55.1031 218.226L58.5146 231.42L65.6637 232.209C65.8289 232.227 65.979 232.312 66.0791 232.445L69.4436 236.907C76.3193 232.013 85.3314 231.679 92.5735 236.097C102.472 242.135 105.615 255.105 99.5805 265.009C98.2577 267.181 96.5838 269.067 94.6018 270.621L96.9516 281.764Z" fill="#363739"/>
<path d="M85.0715 277.402C78.5797 282.301 69.4979 283.027 62.1332 278.534C52.5022 272.66 49.4549 260.085 55.3266 250.449C56.7085 248.181 58.4609 246.278 60.4588 244.771L57.0044 240.191L49.0587 239.081L45.557 225.014C43.9719 226.211 42.4569 227.521 41.0236 228.94C40.6769 228.666 40.3168 228.405 39.9302 228.169C34.7442 225.005 27.9767 226.648 24.8148 231.836C21.6529 237.025 23.294 243.796 28.48 246.96C28.8667 247.196 29.2639 247.396 29.6659 247.579C28.3031 251.921 27.6239 256.38 27.6015 260.813C27.1632 260.864 26.7236 260.934 26.2836 261.041C20.3807 262.473 16.7559 268.422 18.1873 274.328C19.6187 280.234 25.5642 283.861 31.4672 282.429C31.9068 282.322 32.3296 282.183 32.743 282.028C34.7923 285.958 37.4371 289.611 40.6362 292.846C40.3627 293.192 40.1013 293.553 39.8657 293.94C36.7038 299.128 38.3449 305.9 43.5309 309.063C48.7169 312.227 55.4844 310.585 58.6463 305.396C58.882 305.009 59.0824 304.612 59.265 304.21C63.6043 305.573 68.0613 306.253 72.4916 306.275C72.543 306.714 72.613 307.153 72.7196 307.594C74.151 313.5 80.0966 317.127 85.9995 315.694C91.9025 314.262 95.5273 308.313 94.0959 302.407C93.9892 301.967 93.8503 301.544 93.6953 301.13C95.5661 300.154 97.3739 299.042 99.1039 297.8L93.6639 289.892L88.0934 289.85L85.0715 277.402Z" fill="#0A0A0E"/>
<path d="M83.3858 316.61C81.2812 316.61 79.2109 316.033 77.3683 314.909C74.7227 313.295 72.8639 310.747 72.1342 307.734C72.0683 307.464 72.0125 307.178 71.9646 306.87C67.7687 306.801 63.6096 306.152 59.5846 304.937C59.4451 305.217 59.307 305.468 59.1605 305.708C57.5465 308.357 54.9985 310.217 51.9853 310.947C48.9744 311.678 45.8612 311.189 43.2161 309.576C37.7556 306.245 36.021 299.09 39.3507 293.626C39.4973 293.386 39.6572 293.147 39.8418 292.894C36.9197 289.872 34.4376 286.47 32.4531 282.769C32.1578 282.867 31.8789 282.948 31.609 283.014C28.5975 283.744 25.4813 283.258 22.8357 281.644C20.19 280.03 18.3316 277.482 17.6015 274.47C16.0941 268.251 19.9248 261.964 26.1405 260.456C26.4104 260.39 26.6959 260.335 27.004 260.286C27.074 256.087 27.7234 251.924 28.9368 247.898C28.6568 247.758 28.405 247.62 28.1658 247.473C22.7047 244.142 20.9706 236.986 24.2996 231.523C25.913 228.875 28.4608 227.015 31.4742 226.285C34.481 225.556 37.5978 226.041 40.2434 227.655C40.481 227.8 40.7227 227.962 40.9735 228.146C42.3045 226.859 43.7214 225.645 45.1924 224.533C45.3548 224.412 45.5664 224.378 45.7565 224.447C45.9476 224.514 46.0917 224.672 46.1406 224.869L49.5445 238.541L57.0871 239.595C57.2454 239.617 57.3882 239.701 57.4847 239.829L60.9391 244.408C61.139 244.673 61.0862 245.051 60.821 245.251C58.8277 246.755 57.1519 248.609 55.8409 250.762C50.1509 260.099 53.114 272.328 62.4465 278.021C69.4352 282.284 78.1749 281.852 84.7083 276.922C84.8702 276.8 85.0824 276.767 85.2735 276.835C85.4646 276.904 85.6087 277.063 85.6563 277.26L88.5672 289.251L93.6679 289.29C93.8645 289.291 94.0479 289.388 94.1595 289.551L99.5995 297.458C99.7849 297.728 99.7206 298.097 99.4549 298.288C97.8562 299.436 96.17 300.488 94.4354 301.419C94.5335 301.714 94.6142 301.993 94.6801 302.265C96.1875 308.485 92.3568 314.771 86.1411 316.279C85.2273 316.5 84.3026 316.61 83.3858 316.61ZM59.2647 303.607C59.3245 303.607 59.3852 303.616 59.4451 303.635C63.6763 304.965 68.0667 305.65 72.4937 305.673C72.7977 305.674 73.0531 305.902 73.0889 306.204C73.1442 306.673 73.2147 307.081 73.3041 307.451C73.9587 310.151 75.6244 312.435 77.9955 313.882C80.3664 315.328 83.1591 315.765 85.8564 315.109C91.4277 313.758 94.8608 308.123 93.5098 302.549C93.4193 302.175 93.2952 301.781 93.1306 301.342C93.0242 301.057 93.1465 300.738 93.4158 300.597C95.0886 299.724 96.7195 298.735 98.2707 297.652L93.3452 290.492L88.0881 290.452C87.8122 290.449 87.573 290.26 87.5077 289.992L84.6974 278.415C77.8558 283.139 68.9725 283.412 61.8192 279.049C51.9202 273.011 48.777 260.04 54.8117 250.136C56.0976 248.027 57.7133 246.187 59.6201 244.66L56.6734 240.753L48.9749 239.677C48.7313 239.643 48.5331 239.465 48.4737 239.226L45.1946 226.054C43.8876 227.085 42.6301 228.197 41.4473 229.368C41.2308 229.583 40.8884 229.602 40.6497 229.413C40.2803 229.121 39.9427 228.883 39.6162 228.683C37.2464 227.237 34.4542 226.801 31.7583 227.455C29.0585 228.109 26.7752 229.776 25.3296 232.15C22.3451 237.047 23.899 243.461 28.7938 246.447C29.1203 246.646 29.4766 246.832 29.9154 247.033C30.1918 247.158 30.3313 247.471 30.24 247.76C28.9114 251.993 28.2262 256.385 28.2032 260.816C28.2013 261.12 27.9738 261.375 27.6714 261.411C27.1962 261.467 26.8003 261.535 26.4257 261.627C20.8544 262.979 17.4213 268.613 18.7723 274.187C19.4269 276.887 21.0926 279.171 23.4637 280.617C25.8351 282.064 28.6279 282.5 31.3246 281.845C31.6998 281.754 32.0828 281.633 32.531 281.465C32.8156 281.359 33.1363 281.481 33.2769 281.751C35.3254 285.679 37.9453 289.27 41.0642 292.424C41.2783 292.64 41.2972 292.982 41.1091 293.22C40.8113 293.596 40.5797 293.925 40.3804 294.253C37.3955 299.151 38.9493 305.565 43.8447 308.55C46.2139 309.996 49.0053 310.431 51.7015 309.779C54.4018 309.125 56.6852 307.457 58.1313 305.084C58.3312 304.756 58.5171 304.399 58.7165 303.961C58.8165 303.74 59.0342 303.607 59.2647 303.607Z" fill="#363739"/>
<path d="M76.6744 336.356C76.6725 336.356 76.6709 336.356 76.6693 336.356C74.2147 336.333 71.7381 336.192 69.3071 335.936C68.9759 335.902 68.7359 335.606 68.7712 335.275C68.8059 334.944 69.1047 334.706 69.4328 334.74C71.8256 334.991 74.264 335.13 76.6796 335.152C77.0127 335.155 77.2795 335.427 77.2765 335.759C77.2738 336.09 77.0045 336.356 76.6744 336.356ZM83.9869 336.074C83.6774 336.074 83.4146 335.837 83.3875 335.524C83.3588 335.193 83.6046 334.901 83.9358 334.873C85.1161 334.771 86.3162 334.64 87.5026 334.483C88.7196 334.321 89.9412 334.129 91.1344 333.912C91.4667 333.854 91.7756 334.071 91.835 334.397C91.8937 334.724 91.6766 335.038 91.3496 335.097C90.1381 335.316 88.897 335.511 87.6611 335.676C86.4567 335.836 85.2378 335.969 84.0391 336.072C84.0213 336.074 84.0038 336.074 83.9869 336.074ZM62.1379 334.826C62.098 334.826 62.0581 334.822 62.0173 334.814C59.6205 334.326 57.2155 333.715 54.8687 332.999C54.5504 332.902 54.371 332.565 54.4687 332.247C54.5657 331.929 54.9039 331.75 55.2203 331.848C57.5313 332.553 59.8986 333.155 62.2571 333.635C62.5836 333.702 62.7936 334.019 62.7271 334.344C62.6694 334.63 62.4184 334.826 62.1379 334.826ZM98.3695 333.461C98.1065 333.461 97.8653 333.288 97.7901 333.023C97.7002 332.702 97.8866 332.37 98.2065 332.28C100.532 331.626 102.848 330.853 105.092 329.982C105.402 329.863 105.75 330.015 105.871 330.325C105.991 330.635 105.838 330.983 105.528 331.104C103.248 331.988 100.895 332.774 98.5333 333.438C98.4789 333.454 98.4234 333.461 98.3695 333.461ZM48.157 330.553C48.0798 330.553 48.0016 330.538 47.9265 330.507C45.662 329.57 43.4174 328.513 41.2547 327.367C40.9604 327.21 40.8489 326.846 41.0048 326.553C41.1606 326.259 41.5253 326.148 41.8193 326.303C43.9484 327.432 46.1582 328.472 48.3875 329.395C48.6945 329.522 48.8402 329.874 48.7134 330.181C48.6174 330.413 48.3926 330.553 48.157 330.553ZM111.997 328.175C111.776 328.175 111.564 328.054 111.458 327.843C111.309 327.547 111.428 327.185 111.726 327.035C113.878 325.953 116.005 324.751 118.046 323.466C118.328 323.289 118.7 323.373 118.876 323.654C119.054 323.936 118.969 324.307 118.688 324.484C116.614 325.79 114.454 327.01 112.267 328.111C112.18 328.154 112.088 328.175 111.997 328.175ZM35.2413 323.707C35.1278 323.707 35.0124 323.675 34.9107 323.608C32.8627 322.259 30.8583 320.799 28.952 319.266C28.6925 319.057 28.652 318.679 28.8604 318.42C29.0698 318.162 29.448 318.12 29.7074 318.328C31.5837 319.837 33.5575 321.275 35.5732 322.602C35.8513 322.785 35.9278 323.158 35.7449 323.436C35.6287 323.612 35.437 323.707 35.2413 323.707ZM124.363 320.389C124.183 320.389 124.005 320.308 123.886 320.155C123.683 319.892 123.731 319.514 123.994 319.311C125.901 317.839 127.76 316.257 129.521 314.609C129.764 314.382 130.146 314.394 130.373 314.636C130.6 314.879 130.588 315.26 130.345 315.487C128.556 317.162 126.667 318.769 124.731 320.263C124.621 320.348 124.491 320.389 124.363 320.389ZM23.8504 314.553C23.6987 314.553 23.5475 314.496 23.4305 314.382C21.6729 312.673 19.9796 310.862 18.3962 308.998C18.181 308.744 18.2122 308.364 18.4656 308.149C18.7202 307.934 19.0997 307.966 19.3149 308.218C20.8729 310.053 22.5405 311.837 24.2701 313.519C24.5083 313.751 24.5138 314.132 24.2819 314.37C24.1641 314.491 24.0077 314.553 23.8504 314.553ZM135.03 310.403C134.888 310.403 134.746 310.354 134.631 310.253C134.382 310.032 134.358 309.652 134.578 309.403C136.174 307.597 137.702 305.693 139.121 303.742C139.316 303.473 139.692 303.414 139.962 303.61C140.231 303.805 140.29 304.182 140.094 304.45C138.654 306.431 137.102 308.365 135.482 310.2C135.362 310.334 135.196 310.403 135.03 310.403ZM14.3922 303.418C14.2016 303.418 14.0146 303.329 13.8976 303.16C12.4954 301.15 11.1762 299.051 9.97531 296.923C9.81207 296.633 9.91434 296.266 10.2044 296.103C10.4934 295.938 10.8615 296.042 11.0247 296.332C12.2067 298.427 13.506 300.493 14.8857 302.473C15.0757 302.745 15.0088 303.12 14.7359 303.31C14.6309 303.383 14.5108 303.418 14.3922 303.418ZM143.625 298.588C143.521 298.588 143.415 298.56 143.319 298.503C143.033 298.334 142.938 297.966 143.108 297.679C144.337 295.602 145.479 293.445 146.503 291.266C146.645 290.966 147.005 290.835 147.305 290.977C147.606 291.118 147.735 291.476 147.594 291.777C146.554 293.991 145.393 296.183 144.144 298.292C144.032 298.482 143.831 298.588 143.625 298.588ZM7.21728 290.694C6.98651 290.694 6.76614 290.56 6.66634 290.336C5.67436 288.1 4.77835 285.788 4.00347 283.464C3.8982 283.149 4.06909 282.808 4.38462 282.703C4.70015 282.598 5.04138 282.768 5.14637 283.083C5.90922 285.371 6.79129 287.647 7.76768 289.848C7.90275 290.152 7.76522 290.507 7.46118 290.642C7.38161 290.677 7.29876 290.694 7.21728 290.694ZM149.842 285.364C149.775 285.364 149.706 285.353 149.639 285.329C149.326 285.216 149.163 284.872 149.275 284.559C150.089 282.288 150.803 279.953 151.394 277.62C151.476 277.298 151.803 277.104 152.127 277.184C152.449 277.266 152.644 277.594 152.563 277.916C151.961 280.286 151.236 282.658 150.409 284.965C150.321 285.211 150.089 285.364 149.842 285.364ZM2.59424 276.838C2.32027 276.838 2.07228 276.65 2.00775 276.371C1.45927 273.994 1.01631 271.555 0.691488 269.122C0.647467 268.792 0.879056 268.49 1.2088 268.446C1.53746 268.406 1.84178 268.633 1.88553 268.962C2.20543 271.358 2.64154 273.76 3.18183 276.101C3.25647 276.424 3.05415 276.748 2.73014 276.823C2.68448 276.833 2.63881 276.838 2.59424 276.838ZM153.437 271.203C153.407 271.203 153.376 271.2 153.345 271.196C153.016 271.145 152.791 270.838 152.841 270.509C153.208 268.129 153.464 265.702 153.602 263.295C153.621 262.963 153.908 262.718 154.237 262.728C154.569 262.747 154.823 263.031 154.804 263.363C154.665 265.809 154.405 268.275 154.032 270.692C153.986 270.99 153.73 271.203 153.437 271.203ZM0.660322 262.358C0.33823 262.358 0.0713653 262.103 0.0587878 261.779C0.0194149 260.773 -0.000270614 259.755 2.80937e-06 258.755C2.80937e-06 257.309 0.0412937 255.847 0.121954 254.409C0.14082 254.077 0.427914 253.824 0.757115 253.843C1.08905 253.861 1.34333 254.145 1.32474 254.477C1.2449 255.892 1.20443 257.331 1.20443 258.755C1.20416 259.739 1.22357 260.741 1.26212 261.732C1.27497 262.064 1.01632 262.344 0.683836 262.357C0.676181 262.358 0.668252 262.358 0.660322 262.358ZM154.272 256.619C153.95 256.619 153.683 256.364 153.671 256.04C153.578 253.637 153.371 251.204 153.053 248.809L153.035 248.672C152.992 248.343 153.225 248.041 153.555 247.998C153.883 247.954 154.186 248.187 154.229 248.517L154.247 248.651C154.57 251.083 154.781 253.553 154.874 255.994C154.887 256.326 154.627 256.606 154.295 256.618C154.288 256.619 154.28 256.619 154.272 256.619ZM1.48387 247.773C1.45325 247.773 1.42262 247.77 1.39173 247.766C1.0628 247.716 0.836952 247.408 0.887535 247.08C1.25802 244.659 1.75074 242.228 2.35063 239.856C2.43265 239.534 2.76185 239.342 3.08231 239.42C3.40495 239.501 3.60016 239.829 3.51868 240.151C2.92782 242.486 2.44332 244.879 2.07802 247.262C2.03236 247.559 1.77616 247.773 1.48387 247.773ZM152.319 242.005C152.045 242.005 151.798 241.817 151.733 241.539C151.188 239.187 150.525 236.838 149.762 234.557C149.657 234.242 149.827 233.901 150.143 233.796C150.459 233.689 150.8 233.86 150.905 234.176C151.679 236.493 152.353 238.878 152.907 241.267C152.982 241.591 152.78 241.914 152.456 241.99C152.41 242 152.365 242.005 152.319 242.005ZM5.06544 233.609C4.99818 233.609 4.92983 233.598 4.86284 233.574C4.54977 233.462 4.38653 233.118 4.49809 232.805C5.32218 230.5 6.26741 228.207 7.30752 225.99C7.4486 225.688 7.80815 225.559 8.10837 225.701C8.40941 225.842 8.53928 226.2 8.39792 226.501C7.37423 228.683 6.44377 230.941 5.63252 233.21C5.54475 233.456 5.31289 233.609 5.06544 233.609ZM147.685 228.152C147.454 228.152 147.234 228.019 147.134 227.795C146.154 225.592 145.057 223.411 143.872 221.315C143.708 221.025 143.811 220.658 144.101 220.494C144.391 220.333 144.757 220.433 144.921 220.723C146.125 222.853 147.24 225.068 148.236 227.306C148.37 227.61 148.234 227.965 147.93 228.1C147.85 228.136 147.767 228.152 147.685 228.152ZM11.2686 220.38C11.1644 220.38 11.0592 220.353 10.9629 220.296C10.6764 220.127 10.5812 219.758 10.7502 219.472C11.9956 217.363 13.3562 215.29 14.7941 213.31C14.9888 213.041 15.3664 212.979 15.6352 213.176C15.9045 213.371 15.9646 213.748 15.7691 214.016C14.3534 215.966 13.0136 218.007 11.7876 220.083C11.6757 220.274 11.4748 220.38 11.2686 220.38ZM140.499 215.434C140.309 215.434 140.122 215.344 140.004 215.177C138.626 213.204 137.134 211.272 135.57 209.434C135.355 209.181 135.386 208.801 135.639 208.586C135.891 208.371 136.271 208.4 136.488 208.655C138.076 210.521 139.592 212.484 140.993 214.488C141.183 214.76 141.116 215.135 140.843 215.326C140.739 215.399 140.618 215.434 140.499 215.434ZM19.8544 208.557C19.7127 208.557 19.5708 208.507 19.4563 208.406C19.2069 208.186 19.1828 207.806 19.4027 207.557C21.0219 205.72 22.7483 203.94 24.534 202.265C24.7776 202.039 25.1579 202.05 25.3857 202.292C25.6132 202.534 25.6009 202.915 25.3586 203.143C23.6005 204.792 21.9007 206.545 20.3063 208.353C20.1874 208.488 20.0209 208.557 19.8544 208.557ZM131.03 204.309C130.879 204.309 130.727 204.252 130.61 204.139C128.882 202.46 127.051 200.843 125.17 199.334C124.911 199.126 124.869 198.747 125.078 198.488C125.286 198.229 125.665 198.187 125.924 198.395C127.835 199.928 129.694 201.57 131.45 203.275C131.688 203.507 131.694 203.888 131.462 204.127C131.344 204.248 131.187 204.309 131.03 204.309ZM30.5135 198.561C30.3336 198.561 30.1553 198.481 30.0364 198.328C29.8329 198.064 29.8811 197.687 30.1441 197.483C32.0827 195.985 34.1147 194.563 36.1835 193.257C36.4659 193.081 36.837 193.165 37.0147 193.445C37.1924 193.726 37.1082 194.098 36.8271 194.275C34.7904 195.56 32.7897 196.96 30.8818 198.436C30.7716 198.52 30.6423 198.561 30.5135 198.561ZM119.63 195.164C119.517 195.164 119.402 195.132 119.3 195.065C117.284 193.74 115.182 192.496 113.051 191.37C112.757 191.215 112.645 190.851 112.801 190.557C112.957 190.263 113.319 190.151 113.615 190.306C115.779 191.451 117.914 192.714 119.962 194.06C120.239 194.242 120.316 194.615 120.133 194.893C120.018 195.068 119.826 195.164 119.63 195.164ZM42.8733 190.765C42.6527 190.765 42.441 190.644 42.3352 190.434C42.1854 190.137 42.3046 189.775 42.6018 189.626C44.7917 188.522 47.0578 187.513 49.3381 186.626C49.6477 186.504 49.9974 186.658 50.1174 186.969C50.238 187.278 50.0846 187.627 49.7745 187.747C47.53 188.621 45.2997 189.614 43.144 190.7C43.0568 190.744 42.9644 190.765 42.8733 190.765ZM106.709 188.329C106.632 188.329 106.554 188.314 106.479 188.283C104.252 187.363 101.953 186.541 99.6439 185.837C99.3257 185.74 99.1468 185.404 99.2439 185.086C99.3404 184.768 99.6762 184.588 99.9955 184.686C102.34 185.401 104.676 186.237 106.939 187.171C107.246 187.298 107.392 187.65 107.265 187.957C107.17 188.189 106.946 188.329 106.709 188.329ZM56.4931 185.466C56.2309 185.466 55.9889 185.293 55.9142 185.027C55.8237 184.708 56.0097 184.375 56.3301 184.285C58.6785 183.621 61.0956 183.061 63.5124 182.62C63.8394 182.557 64.1536 182.777 64.2129 183.104C64.2728 183.43 64.0565 183.744 63.729 183.804C61.3499 184.239 58.97 184.79 56.6574 185.443C56.6025 185.459 56.5478 185.466 56.4931 185.466ZM92.7258 184.069C92.6864 184.069 92.6457 184.065 92.6057 184.057C90.2406 183.577 87.8255 183.208 85.4289 182.958C85.0978 182.923 84.8577 182.627 84.8925 182.297C84.9261 181.966 85.2184 181.719 85.5536 181.761C87.9893 182.014 90.4424 182.39 92.8447 182.876C93.1712 182.943 93.3817 183.26 93.3158 183.586C93.2576 183.872 93.0063 184.069 92.7258 184.069ZM70.8727 182.84C70.5632 182.84 70.3004 182.604 70.2733 182.291C70.2446 181.959 70.4899 181.668 70.821 181.639C73.0573 181.444 75.3246 181.346 77.5609 181.346L78.192 181.348C78.5242 181.351 78.7918 181.623 78.7888 181.955C78.7858 182.286 78.5171 182.552 78.1865 182.552C78.1848 182.552 78.1829 182.552 78.1813 182.552L77.5609 182.549C75.3593 182.549 73.1273 182.646 70.9257 182.838C70.9082 182.84 70.8904 182.84 70.8727 182.84Z" fill="#363739"/>
</svg>
