<svg width="24" height="24" viewBox="0 0 24 24" fill="none" xmlns="http://www.w3.org/2000/svg">
<path d="M21.9048 9.0902C18.8198 7.44096 16.5686 4.06818 15.9342 -0.00012207C15.2998 4.06818 13.0487 7.44096 9.96368 9.0902C9.3633 9.41119 7.86877 9.90482 7.86877 9.90482C7.86877 9.90482 9.3633 10.3984 9.96368 10.7194C13.0489 12.3687 15.2998 15.7417 15.9342 19.8098C16.5686 15.7414 18.8198 12.3687 21.9048 10.7194C22.5052 10.3984 23.9997 9.90482 23.9997 9.90482C23.9997 9.90482 22.5052 9.41119 21.9048 9.0902Z" fill="white"/>
<path d="M9.16534 17.6445C7.3363 16.6668 6.0017 14.6671 5.62562 12.2552C5.24955 14.6673 3.91494 16.6668 2.0859 17.6445C1.72999 17.8347 0.843994 18.1274 0.843994 18.1274C0.843994 18.1274 1.72999 18.4201 2.0859 18.6103C3.91494 19.588 5.24955 21.5878 5.62562 23.9998C6.0017 21.5878 7.3363 19.5883 9.16534 18.6103C9.52125 18.4201 10.4073 18.1274 10.4073 18.1274C10.4073 18.1274 9.52125 17.8347 9.16534 17.6445Z" fill="white"/>
<path d="M23.673 18.1275C23.673 18.6996 23.2953 19.1637 22.8291 19.1637C22.363 19.1637 21.9853 18.6999 21.9853 18.1275C21.9853 17.555 22.363 17.0912 22.8291 17.0912C23.2953 17.0912 23.673 17.555 23.673 18.1275Z" fill="white"/>
<path d="M8.17585 3.87672C8.17585 4.44915 7.79794 4.91301 7.33202 4.91301C6.8659 4.91301 6.48819 4.44915 6.48819 3.87672C6.48819 3.30454 6.8659 2.84045 7.33202 2.84045C7.79794 2.84045 8.17585 3.30429 8.17585 3.87672Z" fill="white"/>
<path d="M0.843828 10.9411C1.30986 10.9411 1.68766 10.4772 1.68766 9.90488C1.68766 9.33256 1.30986 8.86859 0.843828 8.86859C0.377795 8.86859 0 9.33256 0 9.90488C0 10.4772 0.377795 10.9411 0.843828 10.9411Z" fill="white"/>
</svg>
