<svg width="19" height="18" viewBox="0 0 19 18" fill="none" xmlns="http://www.w3.org/2000/svg">
<path d="M16.4381 6.81774C14.1227 5.58081 12.4308 3.05123 11.9508 0C11.4793 3.05123 9.79441 5.58081 7.48241 6.81774C7.03246 7.05848 5.9121 7.4287 5.9121 7.4287C5.9121 7.4287 7.03348 7.79891 7.48409 8.03966C9.79966 9.27658 11.4913 11.8064 11.9713 14.8574C12.4429 11.8062 14.1278 9.27658 16.4398 8.03966C16.8897 7.79891 18.0101 7.4287 18.0101 7.4287C18.0101 7.4287 16.8887 7.05848 16.4381 6.81774Z" fill="#00B7DF"/>
<path d="M6.89226 13.2336C5.51949 12.5003 4.51649 11.0004 4.23194 9.19159C3.95238 11.0006 2.95352 12.5003 1.58277 13.2336C1.31604 13.3762 0.651855 13.5957 0.651855 13.5957C0.651855 13.5957 1.31665 13.8152 1.58377 13.9579C2.95654 14.6912 3.95954 16.191 4.24409 18C4.52364 16.191 5.52251 14.6913 6.89325 13.9579C7.15998 13.8152 7.82417 13.5957 7.82417 13.5957C7.82417 13.5957 7.15938 13.3762 6.89226 13.2336Z" fill="#00B7DF"/>
<path d="M17.7731 13.5956C17.7737 14.0248 17.4909 14.3728 17.1413 14.3728C16.7917 14.3728 16.508 14.0249 16.5074 13.5956C16.5068 13.1663 16.7896 12.8184 17.1391 12.8184C17.4887 12.8184 17.7725 13.1663 17.7731 13.5956Z" fill="#00B7DF"/>
<path d="M6.13572 2.90745C6.13631 3.33677 5.85336 3.68466 5.50393 3.68466C5.15434 3.68466 4.87059 3.33677 4.87 2.90745C4.86941 2.47832 5.1522 2.13025 5.50179 2.13025C5.85122 2.13025 6.13513 2.47813 6.13572 2.90745Z" fill="#00B7DF"/>
<path d="M0.64422 8.20597C0.993739 8.20597 1.2766 7.858 1.27601 7.42876C1.27542 6.99952 0.991595 6.65155 0.642076 6.65155C0.292557 6.65155 0.00969613 6.99952 0.010288 7.42876C0.0108799 7.858 0.294701 8.20597 0.64422 8.20597Z" fill="#00B7DF"/>
</svg>
