<svg width="186" height="35" viewBox="0 0 186 35" fill="none" xmlns="http://www.w3.org/2000/svg">
<path d="M45.99 31L52.614 4.414H61.452L68.04 31H62.316L57.024 7.816H57.06L51.714 31H45.99ZM50.742 24.844V20.488H63.342V24.844H50.742ZM80.7559 31.432C78.6559 31.432 76.7419 30.91 75.0139 29.866C73.2979 28.81 71.9299 27.274 70.9099 25.258C69.9019 23.23 69.3979 20.74 69.3979 17.788C69.3979 14.848 69.9319 12.358 70.9999 10.318C72.0679 8.278 73.5019 6.724 75.3019 5.656C77.1139 4.588 79.1359 4.054 81.3679 4.054C83.2279 4.054 84.7999 4.354 86.0839 4.954C87.3799 5.554 88.4299 6.322 89.2339 7.258C90.0499 8.194 90.6439 9.184 91.0159 10.228C91.3879 11.26 91.5739 12.214 91.5739 13.09C91.5739 13.126 91.5739 13.162 91.5739 13.198C91.5739 13.234 91.5739 13.27 91.5739 13.306H86.1379C86.1379 13.27 86.1379 13.234 86.1379 13.198C86.1379 13.162 86.1379 13.126 86.1379 13.09C86.1379 12.538 86.0359 11.992 85.8319 11.452C85.6279 10.9 85.3219 10.408 84.9139 9.976C84.5179 9.544 84.0199 9.196 83.4199 8.932C82.8319 8.668 82.1479 8.536 81.3679 8.536C80.3119 8.536 79.3039 8.836 78.3439 9.436C77.3839 10.036 76.5979 11.014 75.9859 12.37C75.3739 13.714 75.0679 15.52 75.0679 17.788C75.0679 19.516 75.2359 20.968 75.5719 22.144C75.9199 23.32 76.3819 24.262 76.9579 24.97C77.5339 25.666 78.1879 26.17 78.9199 26.482C79.6639 26.794 80.4319 26.95 81.2239 26.95C82.3159 26.95 83.2279 26.77 83.9599 26.41C84.7039 26.038 85.2859 25.582 85.7059 25.042C86.1259 24.502 86.3959 23.968 86.5159 23.44V21.712H81.2599V17.68H91.4659V31H88.5319L88.0279 28.066C87.9319 28.294 87.7279 28.594 87.4159 28.966C87.1039 29.338 86.6599 29.716 86.0839 30.1C85.5199 30.472 84.7939 30.784 83.9059 31.036C83.0299 31.3 81.9799 31.432 80.7559 31.432ZM99.0537 8.77L101.574 6.106V17.104L100.314 15.52H110.106V19.84H100.314L101.574 18.256V29.344L99.0537 26.68H112.104V31H95.9577V4.45H112.104V8.77H99.0537ZM121.943 31H116.489V4.45H125.165L134.057 28.984L133.121 29.218V4.45H138.557V31H129.827L120.935 6.538L121.943 6.304V31ZM150.414 15.61L150.378 20.128L141.774 4.45H148.056L153.798 16.402H151.584L157.272 4.45H163.554L155.04 20.128L155.004 15.61L163.824 31H157.524L151.494 19.336H153.87L147.84 31H141.558L150.414 15.61ZM169.929 8.77L172.449 6.106V17.104L171.189 15.52H180.981V19.84H171.189L172.449 18.256V29.344L169.929 26.68H182.979V31H166.833V4.45H182.979V8.77H169.929Z" fill="white"/>
<path fill-rule="evenodd" clip-rule="evenodd" d="M6.77893 22.6447L24.5478 31.4772L17.4982 35L8.7473 30.6265L0 26.2499V17.4998V8.74971L2.53136 7.48509V17.6423L4.24381 16.7319V6.62763L6.77893 5.35983V22.6447Z" fill="#00B7DF"/>
<path fill-rule="evenodd" clip-rule="evenodd" d="M28.4818 18.9038V11.8554L14.1993 4.76056V1.65211L17.4981 0L26.2489 4.37666L28.4818 5.49236L35 8.74974V17.4999V26.2499L31.8999 27.7992L28.4818 26.0974L14.1993 18.9994V16.457L28.4818 23.5682V21.4297L14.1993 14.3217V11.8089L28.4818 18.9038Z" fill="#DEFD5F"/>
</svg>
