<svg width="60" height="60" viewBox="0 0 60 60" fill="none" xmlns="http://www.w3.org/2000/svg">
<g clip-path="url(#clip0_2538_5838)">
<path d="M2 60H22C22.5304 60 23.0391 59.7893 23.4142 59.4142C23.7893 59.0391 24 58.5304 24 58V55.3L24.009 55.312C24.3485 55.8213 24.8004 56.2458 25.3297 56.553C25.8591 56.8601 26.4519 57.0417 27.0625 57.0837C27.6731 57.1257 28.2852 57.0271 28.8517 56.7953C29.4182 56.5636 29.9239 56.2049 30.33 55.747L39.143 45.804C39.738 45.1036 40.0344 44.1977 39.9686 43.281C39.9028 42.3643 39.48 41.5101 38.791 40.9018C38.1021 40.2935 37.202 39.9798 36.2843 40.0281C35.3665 40.0764 34.5043 40.4828 33.883 41.16L28.2 47.307L25.3 42.086C24.7801 41.1515 24.0201 40.3728 23.0986 39.8303C22.177 39.2878 21.1274 39.0011 20.058 39H18V38.22C19.398 37.5414 20.5922 36.5058 21.4619 35.2179C22.3315 33.93 22.8459 32.4353 22.953 30.885C23.8217 30.6706 24.5937 30.1716 25.1459 29.4675C25.6982 28.7635 25.9988 27.8948 26 27V20C25.9984 18.6744 25.4711 17.4036 24.5338 16.4662C23.5964 15.5289 22.3256 15.0016 21 15L21.6 14.2C21.8229 13.9029 21.9586 13.5495 21.9919 13.1796C22.0253 12.8097 21.955 12.4378 21.7889 12.1056C21.6227 11.7734 21.3674 11.494 21.0515 11.2987C20.7355 11.1034 20.3714 11 20 11H11C8.61386 11.0026 6.32622 11.9517 4.63896 13.639C2.95171 15.3262 2.00265 17.6139 2 20V27C2.00118 27.8948 2.30184 28.7635 2.85405 29.4675C3.40626 30.1716 4.17826 30.6706 5.047 30.885C5.1541 32.4353 5.66847 33.93 6.53814 35.2179C7.40781 36.5058 8.60197 37.5414 10 38.22V39H8C5.879 39.0024 3.84555 39.846 2.34578 41.3458C0.846002 42.8456 0.00238211 44.879 0 47L0 58C0 58.5304 0.210714 59.0391 0.585786 59.4142C0.960859 59.7893 1.46957 60 2 60ZM11 13H20L18.5 15H16C15.7348 15 15.4804 15.1054 15.2929 15.2929C15.1054 15.4804 15 15.7348 15 16C15 16.2652 15.1054 16.5196 15.2929 16.7071C15.4804 16.8946 15.7348 17 16 17H21C21.7956 17 22.5587 17.3161 23.1213 17.8787C23.6839 18.4413 24 19.2044 24 20V22.173C23.8379 22.1134 23.6704 22.0692 23.5 22.041C23.1066 21.9759 22.7042 21.9895 22.3161 22.081C21.928 22.1725 21.5619 22.3401 21.239 22.574C20.914 22.0989 20.497 21.6939 20.0126 21.383C19.5282 21.0721 18.9863 20.8616 18.419 20.764C17.0668 20.6424 15.7788 20.1314 14.711 19.293C14.5199 19.1123 14.267 19.0117 14.004 19.0117C13.741 19.0117 13.4881 19.1123 13.297 19.293C12.2289 20.1316 10.9405 20.6425 9.588 20.764C9.02081 20.8615 8.47897 21.0718 7.99457 21.3826C7.51017 21.6933 7.09307 22.0981 6.768 22.573C6.44425 22.3381 6.07694 22.1701 5.68753 22.0788C5.29813 21.9874 4.89442 21.9746 4.5 22.041C4.32956 22.0692 4.16216 22.1134 4 22.173V20C4.00212 18.1441 4.7403 16.3649 6.05259 15.0526C7.36489 13.7403 9.14413 13.0021 11 13ZM7 30C7 29.7348 6.89464 29.4804 6.70711 29.2929C6.51957 29.1054 6.26522 29 6 29C5.46957 29 4.96086 28.7893 4.58579 28.4142C4.21071 28.0391 4 27.5304 4 27V25.107C3.99107 24.8579 4.06809 24.6134 4.21812 24.4143C4.36816 24.2153 4.58209 24.074 4.824 24.014C4.88222 24.0049 4.94106 24.0002 5 24C5.26522 24 5.51957 24.1054 5.70711 24.2929C5.89464 24.4804 6 24.7348 6 25C6 25.2652 6.10536 25.5196 6.29289 25.7071C6.48043 25.8946 6.73478 26 7 26C7.26522 26 7.51957 25.8946 7.70711 25.7071C7.89464 25.5196 8 25.2652 8 25C8.00351 24.4587 8.19677 23.9357 8.54614 23.5222C8.89551 23.1087 9.37886 22.8308 9.912 22.737C11.3623 22.5517 12.7561 22.0583 14 21.29C15.2435 22.0583 16.637 22.5517 18.087 22.737C18.6203 22.8306 19.1039 23.1084 19.4535 23.5219C19.803 23.9355 19.9965 24.4585 20 25C20 25.2652 20.1054 25.5196 20.2929 25.7071C20.4804 25.8946 20.7348 26 21 26C21.2652 26 21.5196 25.8946 21.7071 25.7071C21.8946 25.5196 22 25.2652 22 25C21.9998 24.8537 22.0317 24.7092 22.0934 24.5766C22.1551 24.444 22.2451 24.3266 22.3572 24.2325C22.4692 24.1385 22.6005 24.0702 22.7418 24.0325C22.8831 23.9947 23.031 23.9884 23.175 24.014C23.4172 24.0736 23.6315 24.2148 23.7817 24.4139C23.932 24.613 24.0091 24.8577 24 25.107V27C24 27.5304 23.7893 28.0391 23.4142 28.4142C23.0391 28.7893 22.5304 29 22 29C21.7348 29 21.4804 29.1054 21.2929 29.2929C21.1054 29.4804 21 29.7348 21 30C21 30.285 20.883 37 14 37C7.117 37 7 30.283 7 30ZM14 39C14.6708 39.0001 15.3402 38.9395 16 38.819V40C16 40.5304 15.7893 41.0391 15.4142 41.4142C15.0391 41.7893 14.5304 42 14 42C13.4696 42 12.9609 41.7893 12.5858 41.4142C12.2107 41.0391 12 40.5304 12 40V38.819C12.6598 38.9395 13.3292 39.0001 14 39ZM2 47C2.00159 45.4092 2.63424 43.884 3.75911 42.7591C4.88399 41.6342 6.40919 41.0016 8 41H10.142C10.3603 41.8576 10.8581 42.618 11.5567 43.1611C12.2554 43.7042 13.1151 43.9991 14 43.9991C14.8849 43.9991 15.7446 43.7042 16.4433 43.1611C17.1419 42.618 17.6397 41.8576 17.858 41H20.058C20.7719 40.9994 21.4729 41.1898 22.0884 41.5515C22.7038 41.9132 23.2112 42.433 23.558 43.057L26.458 48.277C26.6115 48.5535 26.8284 48.7896 27.0908 48.966C27.3532 49.1424 27.6537 49.2541 27.9677 49.2919C28.2816 49.3296 28.6001 49.2924 28.8969 49.1833C29.1936 49.0741 29.4603 48.8962 29.675 48.664L35.367 42.506C35.6199 42.2256 35.9684 42.0496 36.3443 42.0126C36.7201 41.9756 37.0962 42.0802 37.399 42.306C37.5639 42.4297 37.7016 42.5858 37.8038 42.7647C37.9061 42.9437 37.9705 43.1416 37.9933 43.3464C38.0161 43.5513 37.9967 43.7586 37.9362 43.9556C37.8758 44.1526 37.7757 44.3352 37.642 44.492L28.837 54.428C28.6339 54.657 28.381 54.8364 28.0977 54.9523C27.8144 55.0682 27.5083 55.1175 27.2029 55.0964C26.8975 55.0754 26.6011 54.9845 26.3363 54.8308C26.0716 54.6771 25.8457 54.4648 25.676 54.21L23.835 51.449C23.7166 51.2694 23.5435 51.1327 23.3412 51.0593C23.139 50.9859 22.9185 50.9796 22.7124 51.0415C22.5064 51.1034 22.3257 51.2301 22.1974 51.4027C22.0691 51.5754 21.9998 51.7849 22 52V58H7V50C7 49.7348 6.89464 49.4804 6.70711 49.2929C6.51957 49.1054 6.26522 49 6 49C5.73478 49 5.48043 49.1054 5.29289 49.2929C5.10536 49.4804 5 49.7348 5 50V58H2V47Z" fill="white"/>
<path d="M56 0H34C32.9391 0 31.9217 0.421427 31.1716 1.17157C30.4214 1.92172 30 2.93913 30 4V26C30 27.0609 30.4214 28.0783 31.1716 28.8284C31.9217 29.5786 32.9391 30 34 30H56C57.0609 30 58.0783 29.5786 58.8284 28.8284C59.5786 28.0783 60 27.0609 60 26V4C60 2.93913 59.5786 1.92172 58.8284 1.17157C58.0783 0.421427 57.0609 0 56 0ZM58 26C58 26.5304 57.7893 27.0391 57.4142 27.4142C57.0391 27.7893 56.5304 28 56 28H34C33.4696 28 32.9609 27.7893 32.5858 27.4142C32.2107 27.0391 32 26.5304 32 26V4C32 3.46957 32.2107 2.96086 32.5858 2.58579C32.9609 2.21071 33.4696 2 34 2H56C56.5304 2 57.0391 2.21071 57.4142 2.58579C57.7893 2.96086 58 3.46957 58 4V26Z" fill="white"/>
<path d="M52.1999 6.4L40.8919 21.478L37.7069 18.293C37.5183 18.1108 37.2657 18.0101 37.0035 18.0123C36.7413 18.0146 36.4905 18.1198 36.3051 18.3052C36.1197 18.4906 36.0145 18.7414 36.0122 19.0036C36.01 19.2658 36.1108 19.5184 36.2929 19.707L40.2929 23.707C40.4804 23.8946 40.7347 23.9999 40.9999 24H41.0709C41.214 23.9895 41.3532 23.9484 41.479 23.8794C41.6048 23.8104 41.7142 23.7151 41.7999 23.6L53.7999 7.6C53.959 7.38783 54.0274 7.12113 53.9899 6.85858C53.9524 6.59603 53.8121 6.35913 53.5999 6.2C53.3877 6.04087 53.121 5.97255 52.8585 6.01005C52.5959 6.04756 52.3591 6.18783 52.1999 6.4Z" fill="white"/>
</g>
<defs>
<clipPath id="clip0_2538_5838">
<rect width="60" height="60" fill="white"/>
</clipPath>
</defs>
</svg>
