<svg width="60" height="60" viewBox="0 0 60 60" fill="none" xmlns="http://www.w3.org/2000/svg">
<g clip-path="url(#clip0_2538_5819)">
<path d="M49 0H11C8.08367 0.00344047 5.28778 1.16347 3.22563 3.22563C1.16347 5.28778 0.00344047 8.08367 0 11L0 49C0.00344047 51.9163 1.16347 54.7122 3.22563 56.7744C5.28778 58.8365 8.08367 59.9966 11 60H49C51.9163 59.9966 54.7122 58.8365 56.7744 56.7744C58.8365 54.7122 59.9966 51.9163 60 49V11C59.9966 8.08367 58.8365 5.28778 56.7744 3.22563C54.7122 1.16347 51.9163 0.00344047 49 0ZM30 39C29.6044 39 29.2178 38.8827 28.8889 38.6629C28.56 38.4432 28.3036 38.1308 28.1522 37.7654C28.0009 37.3999 27.9613 36.9978 28.0384 36.6098C28.1156 36.2219 28.3061 35.8655 28.5858 35.5858C28.8655 35.3061 29.2219 35.1156 29.6098 35.0384C29.9978 34.9613 30.3999 35.0009 30.7654 35.1522C31.1308 35.3036 31.4432 35.56 31.6629 35.8889C31.8827 36.2178 32 36.6044 32 37C32 37.5304 31.7893 38.0391 31.4142 38.4142C31.0391 38.7893 30.5304 39 30 39ZM31 40.858C31.9427 40.6146 32.7642 40.0358 33.3106 39.23C33.857 38.4242 34.0908 37.4468 33.9681 36.481C33.8454 35.5152 33.3747 34.6273 32.6442 33.9837C31.9137 33.3401 30.9736 32.985 30 32.985C29.0264 32.985 28.0863 33.3401 27.3558 33.9837C26.6253 34.6273 26.1546 35.5152 26.0319 36.481C25.9092 37.4468 26.143 38.4242 26.6894 39.23C27.2358 40.0358 28.0573 40.6146 29 40.858V50.158C26.2841 45.1761 22.0921 41.1573 17 38.654L22.6 21H37.4L43 38.673C37.9187 41.1577 33.728 45.15 31 50.105V40.858ZM19.5 19C19.1022 19 18.7206 18.842 18.4393 18.5607C18.158 18.2794 18 17.8978 18 17.5C18 17.1022 18.158 16.7206 18.4393 16.4393C18.7206 16.158 19.1022 16 19.5 16H40.5C40.8978 16 41.2794 16.158 41.5607 16.4393C41.842 16.7206 42 17.1022 42 17.5C42 17.8978 41.842 18.2794 41.5607 18.5607C41.2794 18.842 40.8978 19 40.5 19H19.5ZM39.192 14H20.808L18.237 2H41.763L39.192 14ZM58 49C57.9974 51.3861 57.0483 53.6738 55.361 55.361C53.6738 57.0483 51.3861 57.9974 49 58H11C8.61386 57.9974 6.32622 57.0483 4.63896 55.361C2.95171 53.6738 2.00265 51.3861 2 49V11C2.00265 8.61386 2.95171 6.32622 4.63896 4.63896C6.32622 2.95171 8.61386 2.00265 11 2H16.192L18.78 14.076C17.9341 14.2552 17.1845 14.7412 16.6757 15.4402C16.1668 16.1393 15.9347 17.002 16.0242 17.862C16.1136 18.722 16.5182 19.5185 17.16 20.0979C17.8018 20.6773 18.6353 20.9987 19.5 21H20.5L15.1 38.052C14.9504 38.5214 14.9782 39.0294 15.1782 39.4797C15.3781 39.93 15.7364 40.2913 16.185 40.495C18.461 41.524 24.185 44.795 28.192 52.872C28.3591 53.2104 28.6175 53.4954 28.9381 53.6947C29.2586 53.8939 29.6286 53.9995 30.006 53.9995C30.3834 53.9995 30.7534 53.8939 31.0739 53.6947C31.3945 53.4954 31.6529 53.2104 31.82 52.872C35.82 44.79 41.551 41.524 43.825 40.496C44.2742 40.2924 44.633 39.9309 44.8332 39.4801C45.0335 39.0294 45.0611 38.5208 44.911 38.051L39.5 21H40.5C41.3647 20.9987 42.1982 20.6773 42.84 20.0979C43.4818 19.5185 43.8864 18.722 43.9758 17.862C44.0653 17.002 43.8332 16.1393 43.3243 15.4402C42.8155 14.7412 42.0659 14.2552 41.22 14.076L43.808 2H49C51.3861 2.00265 53.6738 2.95171 55.361 4.63896C57.0483 6.32622 57.9974 8.61386 58 11V49Z" fill="white"/>
</g>
<defs>
<clipPath id="clip0_2538_5819">
<rect width="60" height="60" fill="white"/>
</clipPath>
</defs>
</svg>
