<svg width="60" height="60" viewBox="0 0 60 60" fill="none" xmlns="http://www.w3.org/2000/svg">
<path fill-rule="evenodd" clip-rule="evenodd" d="M13.7109 44.0625C13.2422 44.0625 12.8906 43.7109 12.8906 43.2422V23.0859C12.8906 20.9766 14.6484 19.3359 16.7578 19.3359C18.8672 19.3359 20.5078 20.9766 20.5078 23.0859V39.0234C20.5078 39.4922 20.1562 39.8438 19.6875 39.8438C19.2188 39.8438 18.8672 39.4922 18.8672 39.0234V23.0859C18.8672 21.9141 17.9297 20.9766 16.7578 20.9766C15.5859 20.9766 14.5312 21.9141 14.5312 23.0859V43.2422C14.5312 43.7109 14.1797 44.0625 13.7109 44.0625Z" fill="white"/>
<path fill-rule="evenodd" clip-rule="evenodd" d="M25.6641 41.4844C25.1953 41.4844 24.8438 41.1328 24.8438 40.6641V34.6875C24.8438 33.5156 23.9062 32.5781 22.7344 32.5781C21.5625 32.5781 20.5078 33.5156 20.5078 34.6875V39.0234C20.5078 39.4922 20.1562 39.8438 19.6875 39.8438C19.2188 39.8438 18.8672 39.4922 18.8672 39.0234V34.6875C18.8672 32.5781 20.625 30.9375 22.7344 30.9375C24.8438 30.9375 26.4844 32.5781 26.4844 34.6875V40.6641C26.4844 41.1328 26.1328 41.4844 25.6641 41.4844Z" fill="white"/>
<path fill-rule="evenodd" clip-rule="evenodd" d="M31.6406 42.7734C31.1719 42.7734 30.8203 42.4219 30.8203 41.9531V37.9688C30.8203 36.7969 29.8828 35.8594 28.7109 35.8594C27.5391 35.8594 26.4844 36.7969 26.4844 37.9688V40.6641C26.4844 41.1328 26.1328 41.4844 25.6641 41.4844C25.1953 41.4844 24.8438 41.1328 24.8438 40.6641V37.9688C24.8438 35.8594 26.6016 34.2188 28.7109 34.2188C30.8203 34.2188 32.4609 35.8594 32.4609 37.9688V41.9531C32.4609 42.4219 32.1094 42.7734 31.6406 42.7734Z" fill="white"/>
<path fill-rule="evenodd" clip-rule="evenodd" d="M37.6172 44.0625C37.1484 44.0625 36.7969 43.7109 36.7969 43.2422V40.6641C36.7969 39.7266 35.9766 38.9062 35.0391 38.9062H34.3359C33.2812 38.9062 32.4609 39.7266 32.4609 40.6641V41.6016C32.4609 42.0703 32.1094 42.4219 31.6406 42.4219C31.1719 42.4219 30.8203 42.0703 30.8203 41.6016V40.6641C30.8203 38.7891 32.4609 37.2656 34.3359 37.2656H35.0391C36.9141 37.2656 38.4375 38.7891 38.4375 40.6641V43.2422C38.4375 43.7109 38.0859 44.0625 37.6172 44.0625Z" fill="white"/>
<path fill-rule="evenodd" clip-rule="evenodd" d="M14.4141 60C14.1797 60 13.8281 59.8828 13.7109 59.5313C12.4219 57.0703 11.0156 54.4922 9.72655 52.0313C7.73436 48.2813 5.74218 44.4141 3.74999 40.4297C3.39843 39.7266 3.39843 38.9063 3.86718 38.2032C4.5703 37.1485 5.74218 36.4453 7.14843 36.5625C8.67186 36.5625 11.6016 37.5 14.4141 42.8907C14.6484 43.2422 14.5312 43.711 14.0625 43.9453C13.7109 44.1797 13.2422 44.0625 13.0078 43.5938C10.4297 38.7891 8.08593 38.2032 7.14843 38.2032C6.21093 38.086 5.5078 38.5547 5.27343 39.0235C5.15624 39.1407 5.03905 39.375 5.15624 39.7266C7.14843 43.5938 9.2578 47.461 11.25 51.211C12.5391 53.7891 13.8281 56.25 15.1172 58.8282C15.3516 59.1797 15.2344 59.6485 14.7656 59.8828C14.6484 60 14.5312 60 14.4141 60Z" fill="white"/>
<path fill-rule="evenodd" clip-rule="evenodd" d="M35.7422 60H14.4141C13.9453 60 13.5938 59.6484 13.5938 59.1797C13.5938 58.7109 13.9453 58.3594 14.4141 58.3594H35.7422C36.3281 58.3594 36.7969 57.8906 36.7969 57.1875V43.2422C36.7969 42.7734 37.1484 42.4219 37.6172 42.4219C38.0859 42.4219 38.4375 42.7734 38.4375 43.2422V57.1875C38.4375 58.8281 37.2656 60 35.7422 60Z" fill="white"/>
<path fill-rule="evenodd" clip-rule="evenodd" d="M19.6875 24.6094C19.3359 24.6094 18.9844 24.375 18.8672 23.9062C18.8672 23.5547 19.1016 23.0859 19.5703 22.9688C24.4922 21.9141 28.0078 17.4609 28.0078 12.4219C28.0078 6.44531 23.2031 1.64062 17.2266 1.64062C11.25 1.64062 6.32812 6.44531 6.32812 12.4219C6.32812 17.1094 9.49219 21.4453 13.9453 22.7344C14.4141 22.8516 14.6484 23.3203 14.5312 23.7891C14.4141 24.2578 13.9453 24.4922 13.4766 24.375C8.32031 22.7344 4.6875 17.9297 4.6875 12.4219C4.6875 5.625 10.3125 0 17.2266 0C24.1406 0 29.6484 5.625 29.6484 12.4219C29.6484 18.2812 25.6641 23.3203 19.9219 24.6094C19.8047 24.6094 19.8047 24.6094 19.6875 24.6094Z" fill="white"/>
<path fill-rule="evenodd" clip-rule="evenodd" d="M15.3516 17.6953C15.1172 17.6953 15 17.5781 14.7656 17.4609L9.72656 12.4219C9.49219 12.0703 9.49219 11.6016 9.72656 11.25C10.0781 10.8984 10.5469 10.8984 10.8984 11.25L15.3516 15.7031L23.5547 7.5C23.9062 7.14844 24.4922 7.14844 24.7266 7.5C25.0781 7.85156 25.0781 8.32031 24.7266 8.67188L15.9375 17.4609C15.8203 17.5781 15.5859 17.6953 15.3516 17.6953Z" fill="white"/>
<path fill-rule="evenodd" clip-rule="evenodd" d="M44.0625 24.8438C40.7812 24.8438 37.6172 23.5547 35.2734 21.2109C32.9297 18.8672 31.6406 15.7031 31.6406 12.4219C31.6406 9.02344 32.9297 5.97656 35.2734 3.63281C37.6172 1.28906 40.7812 0 44.0625 0C47.4609 0 50.5078 1.28906 52.8516 3.63281C55.1953 5.97656 56.4844 9.02344 56.4844 12.4219C56.4844 15.7031 55.1953 18.8672 52.8516 21.2109C50.5078 23.5547 47.4609 24.8438 44.0625 24.8438ZM44.0625 1.64062C38.0859 1.64062 33.2812 6.44531 33.2812 12.4219C33.2812 18.3984 38.0859 23.2031 44.0625 23.2031C50.0391 23.2031 54.8438 18.3984 54.8438 12.4219C54.8438 6.44531 50.0391 1.64062 44.0625 1.64062Z" fill="white"/>
</svg>
