<svg width="60" height="60" viewBox="0 0 60 60" fill="none" xmlns="http://www.w3.org/2000/svg">
<path d="M12.1857 1.87378C10.6438 1.87378 9.375 3.14258 9.375 4.68448V34.6845C9.375 35.9357 11.2518 35.9357 11.2518 34.6845V11.2525H48.7463V34.6845C48.718 35.9629 50.65 35.9629 50.6213 34.6845V4.68448C50.6213 3.14258 49.3544 1.87378 47.8125 1.87378H12.1857ZM12.1857 3.75065H47.8125C48.3481 3.75065 48.7463 4.14888 48.7463 4.68448V9.37562H11.2518V4.68448C11.2518 4.14888 11.6501 3.75065 12.1857 3.75065ZM14.0625 5.62384C13.5447 5.62384 13.125 6.0436 13.125 6.56135C13.125 7.07913 13.5447 7.49876 14.0625 7.49876C14.5802 7.49876 15 7.07913 15 6.56135C15 6.0436 14.5802 5.62384 14.0625 5.62384ZM17.8125 5.62384C17.2948 5.62384 16.875 6.0436 16.875 6.56135C16.875 7.07913 17.2948 7.49876 17.8125 7.49876C18.3303 7.49876 18.75 7.07913 18.75 6.56135C18.75 6.0436 18.3303 5.62384 17.8125 5.62384ZM21.5625 5.62384C21.0448 5.62384 20.625 6.0436 20.625 6.56135C20.625 7.07913 21.0448 7.49876 21.5625 7.49876C22.0803 7.49876 22.5 7.07913 22.5 6.56135C22.5 6.0436 22.0803 5.62384 21.5625 5.62384ZM34.6399 5.62567C33.3741 5.71178 33.4605 7.53171 34.6839 7.5007H45.9375C47.1601 7.47236 47.1601 5.65278 45.9375 5.62567H34.6399ZM4.69117 7.5007C3.14926 7.5007 1.875 8.76766 1.875 10.3096V44.0613C1.875 45.6032 3.14926 46.872 4.69117 46.872H55.3143C56.8562 46.872 58.125 45.6032 58.125 44.0613V10.3095C58.125 8.76756 56.8562 7.5006 55.3143 7.5006H53.4393C52.1613 7.47225 52.1613 9.40397 53.4393 9.37562H55.3143C55.8499 9.37562 56.2482 9.77386 56.2482 10.3095V37.5006H3.75V10.3095C3.75 9.77386 4.15559 9.37562 4.69117 9.37562H6.55883C7.83687 9.40397 7.83687 7.47225 6.55883 7.5006L4.69117 7.5007ZM32.8235 14.9842C32.4114 14.9814 32.0458 15.2482 31.9226 15.6416L26.2958 32.5147C25.899 33.7013 27.6788 34.2963 28.0756 33.1098L33.7024 16.2312C33.9146 15.6241 33.4665 14.9884 32.8235 14.9842ZM36.8994 20.4041L41.6602 24.3756L36.8994 28.3417C35.8822 29.1381 37.1382 30.6408 38.1024 29.781L43.7219 25.0953C44.1707 24.7205 44.1707 24.0309 43.7219 23.6561L38.1024 18.9631C37.9344 18.8193 37.7211 18.7395 37.4524 18.7398C36.5662 18.8174 36.2449 19.8744 36.8994 20.4041ZM22.4762 18.7416C22.2651 18.7487 22.0625 18.8266 21.9012 18.963L16.2762 23.656C15.8275 24.0308 15.8275 24.7204 16.2762 25.0952L21.9012 29.7809C22.8687 30.6819 24.1607 29.1291 23.0988 28.3416L18.338 24.3755L23.0988 20.404C23.7915 19.8368 23.3711 18.7143 22.4762 18.7416ZM3.75 39.3775H56.2482V44.0613C56.2482 44.5969 55.8499 44.9951 55.3143 44.9951H4.69117C4.15559 44.9951 3.75 44.5969 3.75 44.0613V39.3775ZM31.9263 41.2507L28.0792 41.2525C26.8842 41.3953 26.9645 43.0882 28.1232 43.1202H31.875C33.1625 43.2339 33.2697 41.2765 31.9263 41.2507ZM24.7412 48.6737C24.3649 48.6666 24.0203 48.8834 23.866 49.2267C23.4145 50.195 22.6057 51.3257 21.2091 52.497H19.6875C18.1456 52.497 16.8787 53.7731 16.8787 55.315V57.1827C16.8768 57.7004 17.2948 58.1217 17.8125 58.1238H42.1857C42.7063 58.1257 43.1288 57.7033 43.1268 57.1827V55.315C43.1268 53.7731 41.8526 52.497 40.3107 52.497H38.7909C37.3944 51.3258 36.5854 50.1949 36.134 49.2267C35.9753 48.8745 35.617 48.6558 35.2313 48.6755C34.5616 48.711 34.1433 49.4157 34.4348 50.0196C34.8003 50.8035 35.3583 51.6443 36.1102 52.497H23.8898C24.6416 51.6443 25.1997 50.8035 25.5652 50.0196C25.8628 49.4048 25.4242 48.6883 24.7412 48.6737ZM19.6875 54.3738H40.3107C40.8462 54.3738 41.2518 54.7794 41.2518 55.315V56.2489H18.7537V55.315C18.7537 54.7794 19.1519 54.3738 19.6875 54.3738Z" fill="#00B7DF"/>
</svg>
