<svg width="60" height="60" viewBox="0 0 60 60" fill="none" xmlns="http://www.w3.org/2000/svg">
<g clip-path="url(#clip0_2650_7860)">
<path d="M33.2919 19.6246C32.5594 18.5174 31.3298 17.8564 30.0008 17.8552C29.9996 17.8552 29.9987 17.8545 29.9976 17.8545C29.9965 17.8545 29.9955 17.8552 29.9944 17.8552C28.6654 17.8564 27.4358 18.5174 26.7043 19.6237L17.9899 32.7583C17.1039 34.0872 17.1039 35.8045 17.9881 37.1307L19.3335 39.1632C19.6122 39.5847 20.1802 39.7004 20.6021 39.4216C21.0241 39.1422 21.1394 38.5745 20.8605 38.153L19.5133 36.1179C19.0386 35.4059 19.0386 34.486 19.5142 33.7722L28.2304 20.6349C28.4485 20.3051 28.7444 20.061 29.0824 19.8995V30.0106C27.7103 30.4108 26.699 31.6664 26.699 33.167C26.699 34.988 28.1785 36.4694 29.9977 36.4694C31.8179 36.4694 33.2991 34.988 33.2991 33.167C33.2991 31.6663 32.2864 30.4104 30.9131 30.0105V19.8996C31.2512 20.0614 31.5473 20.3058 31.766 20.6366L35.8488 26.7791C36.1286 27.1997 36.6972 27.3123 37.1183 27.0348C37.5393 26.7545 37.6537 26.1865 37.374 25.7654L33.2919 19.6246ZM31.4682 33.1669C31.4682 33.9782 30.8084 34.6384 29.9976 34.6384C29.1885 34.6384 28.5297 33.9782 28.5297 33.1669C28.5297 32.3556 29.1885 31.6959 29.9976 31.6959C30.8084 31.6959 31.4682 32.3556 31.4682 33.1669Z" fill="#00B7DF"/>
<path d="M34.5921 45.0018H25.4039L23.1851 41.6578C22.9062 41.2363 22.3376 41.1197 21.9166 41.4013C21.4955 41.6807 21.3802 42.2488 21.66 42.6698L23.2098 45.0054H22.1616C19.6639 45.0054 17.6318 47.0374 17.6318 49.5352V54.7639C17.6318 57.2617 19.6639 59.2937 22.1616 59.2937H37.8382C40.336 59.2937 42.368 57.2617 42.368 54.7639V49.5352C42.368 47.0374 40.336 45.0054 37.8382 45.0054H36.7874L42.0148 37.1335C42.9007 35.8046 42.9007 34.0874 42.0157 32.7602L39.7093 29.2814C39.4294 28.8603 38.8627 28.7436 38.4407 29.0244C38.0196 29.3038 37.9043 29.8719 38.1842 30.2934L40.4915 33.7741C40.9662 34.4862 40.9662 35.4061 40.4905 36.1194L34.5921 45.0018ZM40.5371 49.535V54.7638C40.5371 56.2519 39.3266 57.4628 37.8381 57.4628H22.1615C20.673 57.4628 19.4625 56.2519 19.4625 54.7638V49.535C19.4625 48.047 20.673 46.8361 22.1615 46.8361H37.8381C39.3266 46.8361 40.5371 48.047 40.5371 49.535Z" fill="#00B7DF"/>
<path d="M54.4296 24.8101C52.6989 16.624 46.9444 9.90529 39.3384 6.82876H48.9734C49.408 9.2638 51.5365 11.1194 54.0941 11.1194C56.9611 11.1194 59.2935 8.7838 59.2935 5.91283C59.2935 3.04185 56.961 0.706421 54.0941 0.706421C51.5361 0.706421 49.4075 2.56255 48.9732 4.99794H35.1172C34.6836 2.56255 32.5581 0.706421 30.0034 0.706421C27.4454 0.706421 25.3168 2.56255 24.8825 4.99794H11.0256C10.592 2.56255 8.46656 0.706421 5.91258 0.706421C3.04207 0.706421 0.706055 3.04197 0.706055 5.91294C0.706055 8.78392 3.04195 11.1195 5.91258 11.1195C8.46621 11.1195 10.5914 9.26392 11.0255 6.82888H20.6591C13.0516 9.90587 7.29633 16.6251 5.56629 24.8106C2.85727 24.9904 0.706172 27.246 0.706172 30C0.706172 32.871 3.04207 35.2065 5.9127 35.2065C8.77875 35.2065 11.1111 32.871 11.1111 30C11.1111 27.6451 9.54094 25.6529 7.39523 25.0117C9.3218 16.2408 16.2439 9.31853 25.0138 7.39103C25.6528 9.54365 27.6465 11.1194 30.0034 11.1194C32.3571 11.1194 34.3477 9.54412 34.986 7.39173C43.7546 9.31935 50.6755 16.242 52.6012 25.0137C50.4562 25.6574 48.8877 27.6479 48.8877 29.9999C48.8877 32.8709 51.2236 35.2064 54.0942 35.2064C56.9612 35.2064 59.2936 32.8709 59.2936 29.9999C59.2934 27.2425 57.14 24.9846 54.4296 24.8101ZM9.2802 30C9.2802 31.8613 7.76941 33.3756 5.91258 33.3756C4.05129 33.3756 2.53699 31.8612 2.53699 30C2.53699 28.1384 4.05141 26.624 5.91258 26.624C7.76941 26.624 9.2802 28.1384 9.2802 30ZM54.0941 2.53724C55.9518 2.53724 57.4625 4.05166 57.4625 5.91283C57.4625 7.774 55.9518 9.28841 54.0941 9.28841C52.2328 9.28841 50.7185 7.774 50.7185 5.91283C50.7185 4.05166 52.2328 2.53724 54.0941 2.53724ZM5.91258 9.28853C4.05129 9.28853 2.53699 7.77412 2.53699 5.91294C2.53699 4.05177 4.05141 2.53736 5.91258 2.53736C7.76648 2.53736 9.27457 4.04708 9.27937 5.90439C9.27937 5.90755 9.2775 5.91025 9.2775 5.91341C9.2775 5.91646 9.27914 5.91904 9.27926 5.92208C9.2741 7.77904 7.76625 9.28853 5.91258 9.28853ZM30.0034 9.28853C28.1421 9.28853 26.6278 7.77412 26.6278 5.91294C26.6278 4.05177 28.1422 2.53736 30.0034 2.53736C31.8601 2.53736 33.3702 4.05025 33.3716 5.91037C33.3716 5.91154 33.371 5.91236 33.371 5.91353C33.371 5.91459 33.3716 5.91529 33.3716 5.91634C33.3697 7.77576 31.8599 9.28853 30.0034 9.28853ZM54.0941 33.3756C52.2328 33.3756 50.7185 31.8612 50.7185 30C50.7185 28.1384 52.2329 26.624 54.0941 26.624C55.9518 26.624 57.4625 28.1384 57.4625 30C57.4625 31.8613 55.9518 33.3756 54.0941 33.3756Z" fill="#00B7DF"/>
</g>
<defs>
<clipPath id="clip0_2650_7860">
<rect width="60" height="60" fill="white"/>
</clipPath>
</defs>
</svg>
