<svg width="60" height="60" viewBox="0 0 60 60" fill="none" xmlns="http://www.w3.org/2000/svg">
<g clip-path="url(#clip0_2650_7924)">
<path d="M57.6247 13.2388L30.3823 0.0873022C30.1408 -0.0291821 29.8595 -0.0291821 29.6181 0.0873022L2.37566 13.2388C2.07191 13.3854 1.87891 13.693 1.87891 14.0303V45.9696C1.87891 46.3069 2.07191 46.6145 2.37566 46.7611L29.618 59.9126C29.7387 59.9708 29.8695 60 30.0002 60C30.1308 60 30.2615 59.9708 30.3823 59.9126L57.6247 46.7611C57.9284 46.6145 58.1214 46.3069 58.1214 45.9696V14.0304C58.1214 13.6929 57.9283 13.3855 57.6247 13.2388ZM30.0002 1.85484L55.2209 14.0303L47.9099 17.5597C47.8636 17.5245 47.8148 17.4919 47.7611 17.466L22.7117 5.3734L30.0002 1.85484ZM20.7268 6.36715L45.9108 18.5249L40.7528 21.015L15.5792 8.86219L20.7268 6.36715ZM46.5 20.1922V29.3968L41.6821 31.7228V22.5182L46.5 20.1922ZM56.3636 45.4181L30.8791 57.7207V27.7334L36.9579 24.7987C37.395 24.5877 37.5783 24.0623 37.3673 23.6251C37.1562 23.1881 36.6309 23.0046 36.1936 23.2158L30.0002 26.2058L27.5631 25.0293C27.1259 24.818 26.6005 25.0015 26.3895 25.4386C26.1784 25.8757 26.3617 26.4012 26.7988 26.6122L29.1213 27.7334V57.7207L3.63672 45.4179V15.4305L23.043 24.7991C23.1661 24.8586 23.2963 24.8868 23.4244 24.8868C23.7511 24.8868 24.065 24.7037 24.2165 24.3898C24.4275 23.9527 24.2443 23.4272 23.8072 23.2161L4.77941 14.0303L13.5105 9.81527L39.9121 22.5609C39.916 22.5663 39.9203 22.5711 39.9243 22.5764V33.1232C39.9243 33.4256 40.0798 33.7068 40.336 33.8677C40.4782 33.9569 40.6405 34.0021 40.8033 34.0021C40.9336 34.0021 41.0643 33.9731 41.1854 33.9146L47.7611 30.7402C48.0648 30.5936 48.2579 30.2861 48.2579 29.9487V19.3438L56.3636 15.4307V45.4181Z" fill="#00B7DF"/>
<path d="M10.89 42.0093L6.89212 40.0793C6.45477 39.868 5.92954 40.0515 5.71849 40.4886C5.50743 40.9257 5.69071 41.4512 6.12782 41.6623L10.1257 43.5922C10.2488 43.6518 10.379 43.6799 10.5071 43.6799C10.8338 43.6799 11.1477 43.4968 11.2992 43.1829C11.5104 42.7457 11.3271 42.2204 10.89 42.0093Z" fill="#00B7DF"/>
<path d="M14.5691 39.6143L6.89742 35.9107C6.46019 35.6996 5.93484 35.8829 5.72378 36.3201C5.51284 36.7572 5.69613 37.2827 6.13324 37.4938L13.8049 41.1974C13.9281 41.2568 14.0583 41.285 14.1864 41.285C14.5131 41.285 14.8269 41.102 14.9784 40.788C15.1895 40.3507 15.0062 39.8252 14.5691 39.6143Z" fill="#00B7DF"/>
</g>
<defs>
<clipPath id="clip0_2650_7924">
<rect width="60" height="60" fill="white"/>
</clipPath>
</defs>
</svg>
