<svg width="60" height="60" viewBox="0 0 60 60" fill="none" xmlns="http://www.w3.org/2000/svg">
<path d="M52.8001 9.13636C53.991 9.13636 54.9546 8.17272 54.9546 6.98182C54.9546 5.79091 53.991 4.82727 52.8001 4.82727C51.6091 4.82727 50.6455 5.79091 50.6455 6.98182C50.6455 8.17272 51.6182 9.13636 52.8001 9.13636ZM52.8001 6.36363C53.1455 6.36363 53.4273 6.64545 53.4273 6.99091C53.4273 7.33636 53.1455 7.61818 52.8001 7.61818C52.4455 7.61818 52.1728 7.34545 52.1728 6.99091C52.1728 6.63636 52.4546 6.36363 52.8001 6.36363Z" fill="#00B7DF"/>
<path d="M55.1912 1.34546H10.9003C9.21852 1.34546 7.84579 2.71819 7.84579 4.4V9.06364H4.80943C3.12761 9.06364 1.75488 10.4364 1.75488 12.1182V50.4182C1.75488 52.1 3.12761 53.4727 4.80943 53.4727H25.1094V57.8909C25.1094 58.3091 25.4549 58.6545 25.8731 58.6545H40.2185C40.6367 58.6545 40.9822 58.3091 40.9822 57.8909V53.4727H49.1003C50.7822 53.4727 52.1549 52.1 52.1549 50.4182V45.7546H55.1912C56.8731 45.7546 58.2458 44.3818 58.2458 42.7V4.4C58.2458 2.71819 56.8731 1.34546 55.1912 1.34546ZM9.37306 4.4C9.37306 3.55455 10.064 2.87273 10.9003 2.87273H55.1912C56.0367 2.87273 56.7185 3.56364 56.7185 4.4V11.1H27.7367L24.3276 7.56364C24.064 7.29091 23.7003 7.13637 23.3276 7.13637H15.8185C15.0549 7.13637 14.4276 7.76364 14.4276 8.52728V11.1H9.37306V4.4ZM4.80943 51.9546C3.96397 51.9546 3.28216 51.2636 3.28216 50.4273V12.1182C3.28216 11.2727 3.97306 10.5909 4.80943 10.5909H7.84579V42.7091C7.84579 44.3909 9.21852 45.7636 10.9003 45.7636H27.4822C27.7822 46.3455 27.9185 47 27.864 47.6727H26.6822C25.8094 47.6727 25.1094 48.3818 25.1094 49.2455V51.9546H4.80943ZM32.2912 35.9636C32.4458 35.6909 32.7276 35.5182 33.0458 35.5182C33.5185 35.5182 33.9003 35.9 33.9003 36.3727C33.9003 36.6818 33.7367 36.9636 33.4731 37.1182C33.1822 37.2909 32.8367 37.2727 32.4822 37.0727C32.4367 37.0455 32.3912 37.0091 32.3731 36.9636C32.0822 36.5 32.2003 36.1364 32.2912 35.9636ZM32.2822 34.1364C31.7276 34.3273 31.2549 34.7 30.964 35.2273C30.5276 36.0091 30.5822 36.9636 31.0912 37.7818C31.2549 38.0364 31.4731 38.2455 31.7367 38.4C32.1549 38.6364 32.6094 38.7636 33.0549 38.7636C33.4731 38.7636 33.8822 38.6546 34.2458 38.4455C34.9731 38.0182 35.4276 37.2273 35.4276 36.3818C35.4276 35.3364 34.7458 34.4546 33.8094 34.1364V30.2091L40.564 42.4C40.5549 42.4091 40.5458 42.4273 40.5185 42.4364C38.1276 43.0546 36.564 45.2909 36.6912 47.6727H29.4094C29.5458 45.2818 27.9731 43.0455 25.5367 42.3636L32.2822 30.2091V34.1364ZM39.4549 57.1273H26.6367L26.6822 49.1909H39.4094C39.4367 49.1909 39.4549 49.2091 39.4549 49.2364V57.1273ZM50.6276 50.4182C50.6276 51.2636 49.9367 51.9455 49.1003 51.9455H40.9822V49.2364C40.9822 48.3636 40.2731 47.6636 39.4094 47.6636H38.2276C38.1731 46.9909 38.3185 46.3364 38.6094 45.7546H50.6276V50.4182ZM55.1912 44.2364H40.0912C40.3367 44.1 40.6003 43.9818 40.8912 43.9091C41.3731 43.7818 41.764 43.4455 41.964 42.9909C42.1549 42.5455 42.1276 42.0455 41.8912 41.6182L34.0731 27.5364C33.8731 27.1636 33.4822 26.9273 33.0549 26.9273C32.6185 26.9364 32.2276 27.1546 32.0185 27.5273L24.1912 41.6182C23.9549 42.0455 23.9367 42.5546 24.1276 43C24.3185 43.4546 24.7094 43.7818 25.1912 43.9091C25.4822 43.9818 25.7367 44.1 25.9912 44.2364H10.9003C10.0549 44.2364 9.37306 43.5455 9.37306 42.7091V12.6273H14.5549C15.3185 12.6273 15.9458 12 15.9458 11.2364V8.66364H23.264L26.6731 12.2C26.9367 12.4727 27.3003 12.6273 27.6731 12.6273H56.7185V42.7C56.7185 43.5455 56.0367 44.2364 55.1912 44.2364Z" fill="#00B7DF"/>
<path d="M47.5999 9.13636C48.7908 9.13636 49.7544 8.17272 49.7544 6.98182C49.7544 5.79091 48.7908 4.82727 47.5999 4.82727C46.4089 4.82727 45.4453 5.79091 45.4453 6.98182C45.4453 8.17272 46.4089 9.13636 47.5999 9.13636ZM47.5999 6.36363C47.9453 6.36363 48.2271 6.64545 48.2271 6.99091C48.2271 7.33636 47.9453 7.61818 47.5999 7.61818C47.2453 7.61818 46.9726 7.34545 46.9726 6.99091C46.9726 6.63636 47.2544 6.36363 47.5999 6.36363Z" fill="#00B7DF"/>
<path d="M42.3909 9.13636C43.5818 9.13636 44.5454 8.17272 44.5454 6.98182C44.5454 5.79091 43.5818 4.82727 42.3909 4.82727C41.2 4.82727 40.2363 5.79091 40.2363 6.98182C40.2363 8.17272 41.2 9.13636 42.3909 9.13636ZM42.3909 6.36363C42.7363 6.36363 43.0181 6.64545 43.0181 6.99091C43.0181 7.33636 42.7363 7.61818 42.3909 7.61818C42.0363 7.61818 41.7636 7.34545 41.7636 6.99091C41.7636 6.63636 42.0454 6.36363 42.3909 6.36363Z" fill="#00B7DF"/>
<path d="M47.7641 19.2818C47.3187 19.7273 47.0369 20.2909 46.9278 20.8909H36.246V19.6909C36.246 18.8727 35.5823 18.2091 34.7641 18.2091H31.3187C30.5005 18.2091 29.8369 18.8727 29.8369 19.6909V20.8909H19.1641C19.0641 20.3 18.7823 19.7364 18.3278 19.2727C17.1732 18.1364 15.2005 18.1546 14.0732 19.2818C13.5005 19.8546 13.1914 20.6091 13.1914 21.4091C13.1914 22.2182 13.5096 22.9818 14.0732 23.5364C14.646 24.1273 15.4096 24.4273 16.2005 24.4273C16.7005 24.4273 17.2096 24.3091 17.6914 24.0637C18.2096 23.8 18.6369 23.3637 18.8914 22.8273C18.955 22.6909 19.0096 22.5546 19.055 22.4182H26.4641C22.4369 24.3818 19.4005 28.0727 18.346 32.5273H17.1641C16.346 32.5273 15.6823 33.1909 15.6823 34.0091V37.4546C15.6823 38.2727 16.346 38.9364 17.1641 38.9364H20.6096C21.4278 38.9364 22.0914 38.2727 22.0914 37.4546V34.0091C22.0914 33.1909 21.4278 32.5273 20.6096 32.5273H19.9187C21.1914 27.7273 25.0369 23.9637 29.8641 22.8V23.1273C29.8641 23.9455 30.5278 24.6091 31.346 24.6091H34.7914C35.6096 24.6091 36.2732 23.9455 36.2732 23.1273V22.8C41.0914 23.9637 44.9369 27.7273 46.2187 32.5273H45.5914C44.7732 32.5273 44.1096 33.1909 44.1096 34.0091V37.4546C44.1096 38.2727 44.7732 38.9364 45.5914 38.9364H49.0369C49.855 38.9364 50.5187 38.2727 50.5187 37.4546V34.0091C50.5187 33.1909 49.855 32.5273 49.0369 32.5273H47.7914C46.7278 28.0727 43.6914 24.3727 39.6732 22.4182H47.1005C47.246 22.8364 47.4823 23.2182 47.8005 23.5364C48.3732 24.1273 49.1369 24.4273 49.9278 24.4273C50.4278 24.4273 50.9369 24.3091 51.4187 24.0637C51.9369 23.8 52.3641 23.3637 52.6187 22.8273C53.2096 21.5818 53.0005 20.2273 52.0641 19.2727C50.8732 18.1455 48.9005 18.1546 47.7641 19.2818ZM17.5005 22.1818C17.3914 22.4 17.2096 22.5909 16.9914 22.7C16.2005 23.1 15.5187 22.8455 15.146 22.4546C14.8641 22.1818 14.7096 21.8091 14.7096 21.4091C14.7096 21.0182 14.8641 20.6455 15.146 20.3546C15.4278 20.0727 15.8005 19.9182 16.2005 19.9182C16.5914 19.9182 16.9732 20.0727 17.246 20.3455C17.7187 20.8364 17.8096 21.5182 17.5005 22.1818ZM20.5914 37.4091L17.1914 37.4546L17.146 34.0546H20.546L20.5914 37.4091ZM49.0096 37.4091L45.6096 37.4546L45.5641 34.0546H48.9641L49.0096 37.4091ZM31.3732 23.1364L31.355 21.9909C31.3732 21.9091 31.3732 21.8273 31.3641 21.7364V21.7273C31.3641 21.7 31.3823 21.6818 31.3823 21.6546C31.3823 21.6091 31.3641 21.5727 31.355 21.5364L31.3278 19.7455H34.7278L34.755 21.5364C34.746 21.5818 34.7278 21.6182 34.7278 21.6637C34.7278 21.6909 34.7369 21.7091 34.746 21.7364V21.7455C34.7278 21.8637 34.7369 21.9727 34.7641 22.0727L34.7823 23.1L31.3732 23.1364ZM51.2005 22.1818C51.0914 22.4 50.9096 22.5909 50.6914 22.7C49.9005 23.1 49.2187 22.8455 48.846 22.4546C48.5641 22.1818 48.4096 21.8091 48.4096 21.4091C48.4096 21.0182 48.5641 20.6455 48.846 20.3546C49.1278 20.0727 49.5005 19.9182 49.9005 19.9182C50.2914 19.9182 50.6732 20.0727 50.946 20.3455C51.4187 20.8364 51.5096 21.5182 51.2005 22.1818Z" fill="#00B7DF"/>
</svg>
